<svg width="393" height="852" viewBox="0 0 393 852" fill="none" xmlns="http://www.w3.org/2000/svg">
<rect width="393" height="852" fill="#FFBC92"/>
<g opacity="0.3" clip-path="url(#clip0_224_7787)">
<path d="M187.978 665.509L191.909 665.095C193.581 663.776 192.44 665.115 194.092 663.796C207.873 652.871 208.994 644.761 220.868 631.77L176.339 637.655" fill="#FFE5AA"/>
<path d="M164.091 628.345C162.951 629.919 159.963 629.9 158.193 630.254C143.291 633.187 128.35 636.179 113.33 638.364C113.33 624.664 123.632 608.208 138.514 608.306C140.382 608.306 158.154 625.156 164.072 628.325H164.091V628.345Z" fill="#CA7369"/>
<path d="M254.643 608.404C255.646 608.306 265.574 611.475 266.714 612.184C275.05 617.4 279.237 628.6 278.746 638.187C263.864 635.805 249.04 632.734 234.276 629.624C232.546 629.25 230.088 629.112 228.752 627.971C231.504 626.455 234.394 625.097 236.95 623.246C240.39 620.766 252.225 608.641 254.624 608.424L254.643 608.404Z" fill="#CA7369"/>
<path d="M255.626 604.271C252.402 595.629 257.691 564.449 253.719 558.328C252.618 556.615 238.385 552.974 234.237 549.863C228.732 545.73 226.569 540.631 222.893 535.179C216.091 539.194 211.825 544.805 204.826 549.017C185.677 560.513 159.746 562.481 138.042 563.013C137.551 576.162 138.357 589.33 138.553 602.46L137.551 602.558C130.572 593.543 127.878 595.078 123.691 581.654C113.645 549.509 130.159 515.278 158.862 498.94C224.702 461.461 306.309 536.655 256.354 604.389L255.607 604.271H255.626Z" fill="#CA7369"/>
<path d="M255.626 604.271C255.567 604.782 255.292 605.235 255.194 605.708C255.135 605.964 254.997 606.2 254.938 606.456C254.997 606.2 255.115 605.964 255.194 605.708C255.135 605.964 254.997 606.2 254.938 606.456L254.643 608.404C252.225 608.641 240.39 620.766 236.969 623.227C234.394 625.077 231.524 626.435 228.771 627.951C227.67 628.561 226.569 629.211 225.449 629.742C225.39 629.782 225.331 629.821 225.272 629.841C225.193 629.88 225.114 629.919 225.016 629.959C204.924 639.309 183.672 638.817 164.091 628.325C158.174 625.156 140.382 608.306 138.534 608.306L138.652 606.16C138.652 605.747 138.612 605.334 138.632 604.92L138.475 604.763C138.298 603.975 138.062 603.168 137.57 602.519L138.573 602.42C138.376 589.271 137.551 576.102 138.062 562.973C159.766 562.442 185.697 560.473 204.845 548.977C211.844 544.785 216.11 539.175 222.913 535.139C226.589 540.592 228.771 545.69 234.256 549.824C238.404 552.934 252.638 556.576 253.739 558.288C257.71 564.43 252.422 595.59 255.646 604.231V604.271H255.626Z" fill="#FFE5AA"/>
<path d="M182.08 604.487L211.156 604.349H211.785C208.443 624.585 184.105 625.431 182.08 604.487Z" fill="#CA7369" stroke="#4A121A" stroke-width="6.816" stroke-linecap="round" stroke-linejoin="round"/>
<path d="M181.529 604.96L182.768 604.33" stroke="#4A121A" stroke-width="6.816" stroke-linecap="round" stroke-linejoin="round"/>
<path d="M160.081 583.484C164.661 576.713 169.812 576.693 176.457 580.689" stroke="#4A121A" stroke-width="6.816" stroke-linecap="round" stroke-linejoin="round"/>
<path d="M233.627 582.441C229.046 575.669 223.896 575.65 217.251 579.646" stroke="#4A121A" stroke-width="6.816" stroke-linecap="round" stroke-linejoin="round"/>
<path d="M74.5422 733.593V734.232C74.9408 737.888 74.1037 742.822 75.0205 746.278C75.0803 746.478 75.0604 746.677 75.1202 746.857C88.7726 793.324 174.115 788.529 211.425 787.81C244.012 787.171 302.508 786.152 314.905 746.717C314.965 746.538 314.965 746.358 315.025 746.178C315.762 743.601 315.443 737.089 315.563 733.932V733.253" fill="#FF7A64"/>
<path d="M74.5422 733.593V734.232C74.9408 737.888 74.1037 742.822 75.0205 746.278C75.0803 746.478 75.0604 746.677 75.1202 746.857C88.7726 793.324 174.115 788.529 211.425 787.81C244.012 787.171 302.508 786.152 314.905 746.717C314.965 746.538 314.965 746.358 315.025 746.178C315.762 743.601 315.443 737.089 315.563 733.932V733.253" stroke="#4A121A" stroke-width="7.49323" stroke-linecap="round" stroke-linejoin="round"/>
<path d="M178.502 712.101C178.266 713.597 163.285 731.412 160.965 733.734C159.471 735.25 158.056 737.12 156.483 738.498L156.031 738.97" fill="#96BB00"/>
<path d="M178.502 712.101C178.266 713.597 163.285 731.412 160.965 733.734C159.471 735.25 158.056 737.12 156.483 738.498L156.031 738.97" stroke="#4A121A" stroke-width="7.49323" stroke-linecap="round" stroke-linejoin="round"/>
<path d="M317.613 748.183C322.076 748.517 329.822 754.206 333.38 749.738C334.658 748.143 334.972 732.238 334.245 730.112C330.981 720.684 320.149 733.163 316.08 734.01L315.529 734.423" fill="#FF7A64"/>
<path d="M317.613 748.183C322.076 748.517 329.822 754.206 333.38 749.738C334.658 748.143 334.972 732.238 334.245 730.112C330.981 720.684 320.149 733.163 316.08 734.01L315.529 734.423" stroke="#4A121A" stroke-width="7.49323" stroke-linecap="round" stroke-linejoin="round"/>
<path d="M75.4853 748.183C71.691 748.498 63.434 753.261 60.3278 750.722C57.6344 748.537 57.9883 729.758 59.8363 727.77C62.9228 724.443 74.2271 731.707 77.1957 734.246L77.7658 734.699C82.2875 729.64 91.3703 720.9 105.584 715.546C114.844 712.062 123.14 711.176 128.92 711.058C175.081 709.228 221.242 707.417 267.402 705.586C274.362 707.85 281.774 710.625 288.143 714.267C300.037 721.058 309.218 728.243 315.509 734.404" fill="#FF7A64"/>
<path d="M75.4853 748.183C71.691 748.498 63.434 753.261 60.3278 750.722C57.6344 748.537 57.9883 729.758 59.8363 727.77C62.9228 724.443 74.2271 731.707 77.1957 734.246L77.7658 734.699C82.2875 729.64 91.3703 720.9 105.584 715.546C114.844 712.062 123.14 711.176 128.92 711.058C175.081 709.228 221.242 707.417 267.402 705.586C274.362 707.85 281.774 710.625 288.143 714.267C300.037 721.058 309.218 728.243 315.509 734.404" stroke="#4A121A" stroke-width="7.49323" stroke-linecap="round" stroke-linejoin="round"/>
<path d="M132.42 728.813C129.805 730.88 128.409 733.045 127.623 734.64C124.222 741.628 126.266 750.86 132.4 758.556C146.751 763.655 168.927 769.599 196.471 769.717C226.55 769.835 250.495 762.926 265.318 757.356C266.066 756.608 274.794 747.356 272.081 735.447C270.607 728.971 266.498 724.955 264.689 723.4" fill="#FFCF5F"/>
<path d="M132.42 728.813C129.805 730.88 128.409 733.045 127.623 734.64C124.222 741.628 126.266 750.86 132.4 758.556C146.751 763.655 168.927 769.599 196.471 769.717C226.55 769.835 250.495 762.926 265.318 757.356C266.066 756.608 274.794 747.356 272.081 735.447C270.607 728.971 266.498 724.955 264.689 723.4" stroke="#4A121A" stroke-width="7.49323" stroke-linecap="round" stroke-linejoin="round"/>
<path d="M155.677 738.813C167.473 739.679 175.769 737.179 180.016 735.545C184.655 733.754 189.236 732.002 190.671 728.38C192.578 723.577 188.292 717.121 179.878 712.259C171.935 711.393 163.344 711.038 154.222 711.53C153.18 711.59 152.158 711.649 151.136 711.727" fill="#FFDBAE"/>
<path d="M155.677 738.813C167.473 739.679 175.769 737.179 180.016 735.545C184.655 733.754 189.236 732.002 190.671 728.38C192.578 723.577 188.292 717.121 179.878 712.259C171.935 711.393 163.344 711.038 154.222 711.53C153.18 711.59 152.158 711.649 151.136 711.727" stroke="#4A121A" stroke-width="7.49323" stroke-linecap="round" stroke-linejoin="round"/>
<path d="M233.942 734.856C223.522 735.585 216.189 733.459 212.434 732.061C208.345 730.526 204.295 729.01 203.017 725.92C201.326 721.806 205.101 716.274 212.552 712.101C219.571 711.353 227.159 711.058 235.22 711.471C236.144 711.511 237.048 711.57 237.933 711.629" fill="#FFDBAE"/>
<path d="M233.942 734.856C223.522 735.585 216.189 733.459 212.434 732.061C208.345 730.526 204.295 729.01 203.017 725.92C201.326 721.806 205.101 716.274 212.552 712.101C219.571 711.353 227.159 711.058 235.22 711.471C236.144 711.511 237.048 711.57 237.933 711.629" stroke="#4A121A" stroke-width="7.49323" stroke-linecap="round" stroke-linejoin="round"/>
<path d="M217.231 703.047L214.538 712.18" stroke="#4A121A" stroke-width="7.49323" stroke-linecap="round" stroke-linejoin="round"/>
<path d="M212.423 664.457L226.899 647.801L232.327 673.871L212.423 664.457Z" fill="#C2A800"/>
<path d="M174.063 666.629L165.377 649.249L159.225 676.044L174.063 666.629Z" fill="#C2A800"/>
<path d="M217.231 703.047L216.7 702.535C215.599 701.511 214.813 700.409 213.26 699.995C211.707 699.582 181.431 699.503 179.838 699.995C178.246 700.488 177.519 701.511 176.398 702.594L175.867 703.106" stroke="#4A121A" stroke-width="7.49323" stroke-linecap="round" stroke-linejoin="round"/>
<path d="M178.502 712.101L178.305 711.452C178.325 710.96 176.398 704.444 176.044 703.755L175.848 703.106" stroke="#4A121A" stroke-width="7.49323" stroke-linecap="round" stroke-linejoin="round"/>
<path d="M236.714 671.827C236.419 675.252 237.264 679.327 236.065 682.614C233.843 688.697 223.502 699.247 217.781 702.692L217.231 703.027" stroke="#4A121A" stroke-width="7.49323" stroke-linecap="round" stroke-linejoin="round"/>
<path d="M154.419 685.016L153.082 674.721C153.514 671.355 154.556 668.048 156.738 667.831C160.474 667.949 160.376 670.961 159.766 673.835L161.103 684.13C161.594 688.539 155.067 689.405 154.419 684.996V685.016Z" fill="#4A121A"/>
<path d="M157.761 684.583L158.193 685.035C162.047 690.626 172.82 697.811 175.848 703.125" stroke="#4A121A" stroke-width="7.49323" stroke-linecap="round" stroke-linejoin="round"/>
<path d="M225.272 629.86L182.375 678.579" stroke="#4A121A" stroke-width="7.49323" stroke-linecap="round" stroke-linejoin="round"/>
<path d="M158.213 630.254C143.311 633.187 128.37 636.179 113.35 638.364C113.35 624.664 123.651 608.208 138.534 608.306C140.401 608.306 158.174 625.156 164.091 628.325C183.672 638.817 204.924 639.289 225.016 629.959L225.449 629.742C226.569 629.191 227.67 628.561 228.771 627.951C231.524 626.435 234.414 625.077 236.969 623.227C240.41 620.747 252.245 608.621 254.643 608.405C255.646 608.306 265.574 611.475 266.714 612.184C275.05 617.4 279.237 628.601 278.746 638.187C263.864 635.805 249.04 632.734 234.276 629.624" stroke="#4A121A" stroke-width="7.49323" stroke-linecap="round" stroke-linejoin="round"/>
<path d="M187.978 662.517L176.339 637.636" stroke="#4A121A" stroke-width="7.49323" stroke-linecap="round" stroke-linejoin="round"/>
<path d="M225.449 634.289C250.515 647.458 264.965 677.162 264.729 704.858C264.65 713.164 259.342 739.187 253.739 744.836C246.937 751.706 240.351 739.522 235.613 736.392L235.161 735.939" fill="#C2A800"/>
<path d="M225.449 634.289C250.515 647.458 264.965 677.162 264.729 704.858C264.65 713.164 259.342 739.187 253.739 744.836C246.937 751.706 240.351 739.522 235.613 736.392M235.613 736.392L235.161 735.939M235.613 736.392L231.965 711.528" stroke="#4A121A" stroke-width="7.49323" stroke-linecap="round" stroke-linejoin="round"/>
<path d="M168.634 634.042C142.506 648.447 128.569 675.952 128.83 704.979C128.87 709.326 129.372 714.978 130.175 719.246C130.979 723.514 132.324 728.256 133.81 732.188C140.096 748.846 141.944 751.849 156.846 739.243" fill="#C2A800"/>
<path d="M168.634 634.042C142.506 648.447 128.569 675.952 128.83 704.979C128.87 709.326 129.372 714.978 130.175 719.246C130.979 723.514 132.324 728.256 133.81 732.188C140.096 748.846 141.944 751.849 156.846 739.243M157.778 739.409L163.206 678.216" stroke="#4A121A" stroke-width="7.49323" stroke-linecap="round" stroke-linejoin="round"/>
<path d="M176.949 664.82L165.31 639.939" stroke="#4A121A" stroke-width="7.49323" stroke-linecap="round" stroke-linejoin="round"/>
<path d="M229.302 641.238L186.405 689.956" stroke="#4A121A" stroke-width="7.49323" stroke-linecap="round" stroke-linejoin="round"/>
<path d="M138.652 606.18L138.475 604.783C138.298 603.995 138.062 603.188 137.57 602.538C130.591 593.523 127.898 595.058 123.71 581.634C113.664 549.489 130.178 515.258 158.881 498.92C224.721 461.441 306.328 536.635 256.373 604.369C256.098 604.743 255.862 605.137 255.587 605.511C255.371 605.826 255.213 606.2 254.938 606.456C254.997 606.2 255.115 605.964 255.194 605.708C255.312 605.216 255.587 604.763 255.626 604.271C252.402 595.629 257.69 564.449 253.719 558.328C252.618 556.615 238.385 552.973 234.237 549.863C228.732 545.73 226.569 540.631 222.893 535.179C216.091 539.194 211.825 544.804 204.826 549.017C185.677 560.513 159.746 562.481 138.042 563.012C137.551 576.162 138.357 589.33 138.553 602.46C138.553 603.287 138.612 604.113 138.612 604.94C138.612 605.353 138.632 605.767 138.632 606.18H138.652Z" stroke="#4A121A" stroke-width="7.49323" stroke-linecap="round" stroke-linejoin="round"/>
<path d="M195.114 710.881L195.94 710.94L196.136 711.865C196.254 711.905 196.412 711.865 196.51 711.865C196.628 711.924 196.942 711.472 196.942 712.141C196.097 716.294 206.005 729.424 204.983 731.805C204.079 733.912 194.249 733.734 192.047 733.4C190.16 733.124 188.351 733.597 187.978 731.097C187.82 730.093 193.934 714.838 194.78 712.003L194.623 711.668L194.898 711.629C194.976 711.373 195.035 711.117 195.114 710.861V710.881Z" fill="#4A121A"/>
<path d="M272.18 474.04C276.387 473.469 277.94 480.201 274.205 480.654C271.079 481.028 268.169 474.591 272.18 474.04Z" fill="#4A121A"/>
<path d="M272.868 486.913C278.805 485.869 276.19 494.216 271.845 493.172C269.368 492.582 269.88 487.425 272.868 486.913Z" fill="#4A121A"/>
<path d="M282.344 486.913C285.686 485.752 289.284 491.007 286.079 492.838C283.484 494.314 280.358 490.988 281.164 488.133C281.164 488.055 282.265 486.933 282.344 486.913Z" fill="#4A121A"/>
<path d="M284.034 474.039C288.183 473.488 287.947 478.685 285.057 479.964C279.867 482.228 279.985 474.571 284.034 474.039Z" fill="#4A121A"/>
<path d="M79.7121 644.624C83.9192 644.053 85.4724 650.785 81.737 651.238C78.6112 651.612 75.7015 645.175 79.7121 644.624Z" fill="#4A121A"/>
<path d="M80.4001 657.497C86.3373 656.454 83.7226 664.8 79.3778 663.757C76.9007 663.166 77.4119 658.009 80.4001 657.497Z" fill="#4A121A"/>
<path d="M89.8761 657.497C93.2182 656.336 96.8159 661.591 93.6114 663.422C91.0163 664.898 87.8905 661.572 88.6965 658.718C88.7162 658.639 89.7974 657.517 89.8761 657.497Z" fill="#4A121A"/>
<path d="M91.5865 644.624C95.7347 644.072 95.4987 649.269 92.6088 650.549C87.4186 652.812 87.5366 645.155 91.5865 644.624Z" fill="#4A121A"/>
<path d="M101.22 488.94C102.911 488.763 112.033 497.444 112.229 498.507C112.288 498.822 112.308 499.983 112.229 500.239C112.052 500.908 103.225 509.629 102.576 509.806C100.591 510.357 91.5669 501.814 91.2327 500.239C91.0558 499.412 91.2327 498.251 91.5669 497.444C91.8815 496.696 100.374 488.999 101.22 488.921V488.94Z" fill="#4A121A"/>
<path d="M101.22 495.909C102.36 495.692 104.228 498.586 105.112 499.215C102.085 503.644 101.357 503.664 97.9956 499.57C97.9563 499.176 100.984 495.968 101.22 495.909Z" fill="#F9B452"/>
<path d="M315.647 641.986C316.925 641.671 317.947 642.084 319.028 642.675C319.54 642.95 327.207 650.607 327.325 651.198C327.384 651.493 327.403 653.029 327.325 653.285C327.148 653.934 318.321 662.359 317.672 662.516C317.377 662.576 315.903 662.595 315.647 662.516C314.939 662.3 306.446 653.58 306.328 652.596C306.092 650.548 314.173 642.34 315.647 641.986Z" fill="#4A121A"/>
<path d="M316.669 648.6C317.475 648.6 319.756 651.67 320.562 652.261C320.09 652.792 316.925 655.922 316.669 655.922C316.394 655.922 312.875 652.34 313.445 651.572C314.074 651.06 316.04 648.619 316.669 648.619V648.6Z" fill="#F9B452"/>
<path d="M245.384 710.074C243.673 693.893 234.197 679.465 220.298 671.65C220.219 671.611 220.16 671.571 220.082 671.532C212.926 667.556 204.905 665.489 196.785 665.509C188.666 665.528 180.487 667.694 173.292 671.768C167.512 675.056 162.42 679.524 158.37 684.898C158.311 684.957 158.272 685.036 158.213 685.095C152.866 692.26 149.464 700.842 148.462 709.818" fill="#F2F2F2"/>
<path d="M245.384 710.074C243.673 693.893 234.197 679.465 220.298 671.65C220.219 671.611 220.16 671.571 220.082 671.532C212.926 667.556 204.905 665.489 196.785 665.509C188.666 665.528 180.487 667.694 173.292 671.768C167.512 675.056 162.42 679.524 158.37 684.898C158.311 684.957 158.272 685.036 158.213 685.095C152.866 692.26 149.464 700.842 148.462 709.818" stroke="#B91832" stroke-width="10.7702" stroke-linecap="round" stroke-linejoin="round"/>
<path d="M194.092 708.283C194.603 708.361 195.094 708.499 195.606 708.558C195.92 708.598 196.412 708.558 196.628 708.676C196.707 708.716 196.824 708.676 196.883 708.676C202.703 709.365 208.404 710.251 214.263 710.448C217.821 710.586 242.926 710.743 244.479 710.133" fill="#F2F2F2"/>
<path d="M194.092 708.283C194.603 708.361 195.094 708.499 195.606 708.558C195.92 708.598 196.412 708.558 196.628 708.676C196.707 708.716 196.824 708.676 196.883 708.676C202.703 709.365 208.404 710.251 214.263 710.448C217.821 710.586 242.926 710.743 244.479 710.133" stroke="#B91832" stroke-width="10.7702" stroke-linecap="round" stroke-linejoin="round"/>
<path d="M173.705 672.26C178.777 681.079 183.77 689.937 189.039 698.637C189.708 699.72 195.016 707.574 194.544 708.027C189.688 711.255 184.852 710.468 179.445 710.507C175.356 710.546 151.47 710.704 149.425 709.936" fill="#F2F2F2"/>
<path d="M173.705 672.26C178.777 681.079 183.77 689.937 189.039 698.637C189.708 699.72 195.016 707.574 194.544 708.027C189.688 711.255 184.852 710.468 179.445 710.507C175.356 710.546 151.47 710.704 149.425 709.936" stroke="#B91832" stroke-width="10.7702" stroke-linecap="round" stroke-linejoin="round"/>
<path d="M196.844 666.139C196.883 676.512 196.785 686.906 196.844 697.279C196.844 701.157 196.648 705.015 197.178 708.873C196.608 711.688 203.312 720.546 202.604 722.18C201.995 723.597 195.35 723.479 193.856 723.263C192.578 723.085 191.359 723.4 191.104 721.707C191.005 721.019 195.134 710.704 195.704 708.795C195.724 708.716 195.763 708.617 195.783 708.539C195.841 708.362 195.881 708.184 195.92 708.027C196.294 706.728 196.667 705.389 196.824 704.051" fill="#F2F2F2"/>
<path d="M196.844 666.139C196.883 676.512 196.785 686.906 196.844 697.279C196.844 701.157 196.648 705.015 197.178 708.873C196.608 711.688 203.312 720.546 202.604 722.18C201.995 723.597 195.35 723.479 193.856 723.263C192.578 723.085 191.359 723.4 191.104 721.707C191.005 721.019 195.134 710.704 195.704 708.795C195.724 708.716 195.763 708.617 195.783 708.539C195.841 708.362 195.881 708.184 195.92 708.027C196.294 706.728 196.667 705.389 196.824 704.051" stroke="#B91832" stroke-width="10.7702" stroke-linecap="round" stroke-linejoin="round"/>
<path d="M206.753 695.448C207.46 696.984 208.129 698.559 208.836 700.094C209.249 700.98 209.584 701.885 210.036 702.751L210.154 702.968C211.235 705.035 212.552 707.003 213.712 709.05" fill="#F2F2F2"/>
<path d="M206.753 695.448C207.46 696.984 208.129 698.559 208.836 700.094C209.249 700.98 209.584 701.885 210.036 702.751L210.154 702.968C211.235 705.035 212.552 707.003 213.712 709.05" stroke="#B91832" stroke-width="10.7702" stroke-linecap="round" stroke-linejoin="round"/>
<path d="M235.102 685.685L202.447 708.204C201.091 709.07 199.439 708.814 197.906 708.775" fill="#F2F2F2"/>
<path d="M235.102 685.685L202.447 708.204C201.091 709.07 199.439 708.814 197.906 708.775" stroke="#B91832" stroke-width="10.7702" stroke-linecap="round" stroke-linejoin="round"/>
<path d="M158.587 685.449C166.824 691.157 175.002 696.945 183.259 702.614C185.894 704.425 188.528 706.196 191.163 708.007" fill="#F2F2F2"/>
<path d="M158.587 685.449C166.824 691.157 175.002 696.945 183.259 702.614C185.894 704.425 188.528 706.196 191.163 708.007" stroke="#B91832" stroke-width="10.7702" stroke-linecap="round" stroke-linejoin="round"/>
<path d="M203.705 698.047C201.464 697.712 199.164 697.574 196.903 697.26H196.667C193.6 696.433 191.615 697.732 189.039 698.972C187.309 699.818 184.793 701.078 183.515 702.574C183.417 702.692 183.299 702.81 183.2 702.929C181.746 704.799 181.136 707.023 180.094 709.109" fill="#F2F2F2"/>
<path d="M203.705 698.047C201.464 697.712 199.164 697.574 196.903 697.26H196.667C193.6 696.433 191.615 697.732 189.039 698.972C187.309 699.818 184.793 701.078 183.515 702.574C183.417 702.692 183.299 702.81 183.2 702.929C181.746 704.799 181.136 707.023 180.094 709.109" stroke="#B91832" stroke-width="10.7702" stroke-linecap="round" stroke-linejoin="round"/>
<path d="M219.983 672.26C215.56 679.898 211.314 687.634 206.871 695.252C206.792 695.39 206.713 695.527 206.635 695.665C206.143 696.492 205.652 697.299 205.16 698.126C205.121 698.185 205.081 698.263 205.042 698.323C203.351 701.196 201.602 704.051 199.911 706.925" fill="#F2F2F2"/>
<path d="M219.983 672.26C215.56 679.898 211.314 687.634 206.871 695.252C206.792 695.39 206.713 695.527 206.635 695.665C206.143 696.492 205.652 697.299 205.16 698.126C205.121 698.185 205.081 698.263 205.042 698.323C203.351 701.196 201.602 704.051 199.911 706.925" stroke="#B91832" stroke-width="10.7702" stroke-linecap="round" stroke-linejoin="round"/>
</g>
<defs>
<clipPath id="clip0_224_7787">
<rect width="283" height="318" fill="white" transform="translate(55 474)"/>
</clipPath>
</defs>
</svg>
