<svg width="198" height="223" viewBox="0 0 198 223" fill="none" xmlns="http://www.w3.org/2000/svg">
<g opacity="0.3" clip-path="url(#clip0_163_1184)">
<path d="M93.0674 134.118L95.8045 133.83C96.9677 132.912 96.174 133.844 97.3235 132.926C106.917 125.325 107.697 119.683 115.963 110.644L84.9657 114.739" fill="#FFE5AA"/>
<path d="M76.4398 108.261C75.6461 109.357 73.5659 109.343 72.3342 109.59C61.9607 111.63 51.5599 113.712 41.1043 115.232C41.1043 105.7 48.2754 94.2509 58.6352 94.3194C59.9353 94.3194 72.3068 106.042 76.4261 108.247H76.4398V108.261Z" fill="#CA7369"/>
<path d="M139.474 94.3878C140.172 94.3193 147.083 96.5242 147.877 97.0173C153.68 100.647 156.595 108.439 156.252 115.109C145.893 113.452 135.574 111.315 125.296 109.151C124.092 108.891 122.381 108.795 121.451 108.001C123.367 106.946 125.378 106.001 127.157 104.714C129.552 102.988 137.791 94.5521 139.461 94.4015L139.474 94.3878Z" fill="#CA7369"/>
<path d="M140.159 91.5119C137.914 85.4997 141.596 63.8065 138.831 59.5473C138.065 58.3558 128.157 55.8222 125.269 53.6583C121.437 50.7823 119.932 47.2353 117.373 43.4417C112.637 46.2355 109.668 50.1386 104.796 53.0694C91.4662 61.0674 73.4153 62.4369 58.3067 62.8067C57.9646 71.9551 58.5257 81.1172 58.6626 90.2519L57.9646 90.3204C53.1063 84.048 51.2314 85.1162 48.3165 75.7761C41.3233 53.4118 52.8189 29.5958 72.7995 18.2288C118.632 -7.84688 175.439 44.4688 140.665 91.594L140.145 91.5119H140.159Z" fill="#CA7369"/>
<path d="M140.159 91.5119C140.117 91.868 139.926 92.183 139.857 92.5117C139.816 92.6897 139.721 92.854 139.68 93.0321C139.721 92.854 139.803 92.6897 139.857 92.5117C139.816 92.6897 139.721 92.854 139.68 93.0321L139.474 94.3879C137.791 94.5522 129.552 102.988 127.171 104.7C125.378 105.988 123.38 106.933 121.464 107.987C120.698 108.412 119.932 108.864 119.152 109.234C119.111 109.261 119.069 109.288 119.028 109.302C118.974 109.329 118.919 109.357 118.85 109.384C104.864 115.889 90.0703 115.547 76.4397 108.247C72.3204 106.043 59.9352 94.3194 58.6488 94.3194L58.7309 92.8266C58.7309 92.539 58.7036 92.2514 58.7172 91.9638L58.6078 91.8543C58.4846 91.3065 58.3204 90.745 57.9782 90.293L58.6762 90.2245C58.5393 81.0761 57.9646 71.914 58.3204 62.7793C73.429 62.4096 91.4799 61.04 104.809 53.042C109.681 50.125 112.651 46.2218 117.386 43.4143C119.945 47.2079 121.464 50.7549 125.283 53.6309C128.17 55.7948 138.078 58.3284 138.845 59.5199C141.609 63.7928 137.928 85.4723 140.172 91.4845V91.5119H140.159Z" fill="#FFE5AA"/>
<path d="M14.1036 181.487V181.932C14.3811 184.475 13.7983 187.908 14.4366 190.313C14.4782 190.452 14.4643 190.591 14.5059 190.716C24.0096 223.044 83.4178 219.709 109.39 219.208C132.074 218.763 172.794 218.055 181.423 190.618C181.465 190.493 181.465 190.368 181.507 190.243C182.02 188.45 181.798 183.919 181.881 181.723V181.25" fill="#FF7A64"/>
<path d="M14.1036 181.487V181.932C14.3811 184.475 13.7983 187.908 14.4366 190.313C14.4782 190.452 14.4643 190.591 14.5059 190.716C24.0096 223.044 83.4178 219.709 109.39 219.208C132.074 218.763 172.794 218.055 181.423 190.618C181.465 190.493 181.465 190.368 181.506 190.243C182.02 188.45 181.798 183.919 181.881 181.723V181.25" stroke="#4A121A" stroke-width="5.19777" stroke-linecap="round" stroke-linejoin="round"/>
<path d="M86.4711 166.534C86.3068 167.575 75.8786 179.969 74.2638 181.585C73.2237 182.64 72.2384 183.941 71.1435 184.899L70.8288 185.228" fill="#96BB00"/>
<path d="M86.4711 166.534C86.3068 167.575 75.8786 179.969 74.2638 181.585C73.2237 182.64 72.2384 183.941 71.1435 184.899L70.8288 185.228" stroke="#4A121A" stroke-width="5.19777" stroke-linecap="round" stroke-linejoin="round"/>
<path d="M183.308 191.638C186.415 191.87 191.807 195.828 194.284 192.72C195.174 191.61 195.392 180.544 194.886 179.065C192.614 172.505 185.074 181.188 182.241 181.777L181.858 182.065" fill="#FF7A64"/>
<path d="M183.308 191.638C186.415 191.87 191.807 195.828 194.284 192.72C195.174 191.61 195.392 180.544 194.886 179.065C192.614 172.505 185.074 181.188 182.241 181.777L181.858 182.065" stroke="#4A121A" stroke-width="5.19777" stroke-linecap="round" stroke-linejoin="round"/>
<path d="M14.7601 191.638C12.1188 191.857 6.371 195.171 4.20872 193.404C2.33383 191.884 2.58017 178.819 3.86659 177.436C6.01518 175.121 13.8842 180.175 15.9507 181.941L16.3476 182.256C19.4952 178.737 25.8178 172.656 35.7123 168.931C42.1581 166.507 47.9333 165.891 51.9568 165.808C84.0899 164.535 116.223 163.275 148.356 162.001C153.201 163.576 158.36 165.507 162.794 168.041C171.074 172.766 177.465 177.764 181.844 182.051" fill="#FF7A64"/>
<path d="M14.7601 191.638C12.1188 191.857 6.371 195.171 4.20872 193.404C2.33383 191.884 2.58017 178.819 3.86659 177.436C6.01518 175.121 13.8842 180.175 15.9507 181.941L16.3476 182.256C19.4952 178.737 25.8178 172.656 35.7123 168.931C42.1581 166.507 47.9333 165.891 51.9568 165.808C84.0899 164.535 116.223 163.275 148.356 162.001C153.201 163.576 158.36 165.507 162.794 168.041C171.074 172.766 177.465 177.764 181.844 182.051" stroke="#4A121A" stroke-width="5.19777" stroke-linecap="round" stroke-linejoin="round"/>
<path d="M54.3928 178.161C52.5726 179.599 51.601 181.106 51.0536 182.215C48.686 187.077 50.1093 193.5 54.3791 198.855C64.3694 202.402 79.8064 206.538 98.9795 206.62C119.918 206.702 136.587 201.895 146.905 198.02C147.426 197.499 153.502 191.062 151.613 182.777C150.587 178.271 147.727 175.477 146.468 174.395" fill="#FFCF5F"/>
<path d="M54.3928 178.161C52.5726 179.599 51.601 181.106 51.0536 182.215C48.686 187.077 50.1093 193.5 54.3791 198.855C64.3694 202.402 79.8064 206.538 98.9795 206.62C119.918 206.702 136.587 201.895 146.905 198.02C147.426 197.499 153.502 191.062 151.613 182.777C150.587 178.271 147.727 175.477 146.468 174.395" stroke="#4A121A" stroke-width="5.19777" stroke-linecap="round" stroke-linejoin="round"/>
<path d="M70.5825 185.119C78.7937 185.721 84.5689 183.982 87.5249 182.845C90.7547 181.599 93.9433 180.38 94.9424 177.86C96.2698 174.518 93.2864 170.026 87.4291 166.644C81.9003 166.041 75.9198 165.795 69.5698 166.137C68.8445 166.178 68.1328 166.219 67.4212 166.274" fill="#FFDBAE"/>
<path d="M70.5825 185.119C78.7937 185.721 84.5689 183.982 87.5249 182.845C90.7547 181.599 93.9433 180.38 94.9424 177.86C96.2698 174.518 93.2864 170.026 87.4291 166.644C81.9003 166.041 75.9198 165.795 69.5698 166.137C68.8445 166.178 68.1328 166.219 67.4212 166.274" stroke="#4A121A" stroke-width="5.19777" stroke-linecap="round" stroke-linejoin="round"/>
<path d="M125.064 182.366C117.811 182.873 112.706 181.394 110.092 180.421C107.245 179.353 104.426 178.298 103.537 176.148C102.36 173.286 104.987 169.438 110.174 166.534C115.06 166.014 120.342 165.808 125.953 166.096C126.596 166.123 127.226 166.164 127.842 166.206" fill="#FFDBAE"/>
<path d="M125.064 182.366C117.811 182.873 112.706 181.394 110.092 180.421C107.245 179.353 104.426 178.298 103.537 176.148C102.36 173.286 104.987 169.438 110.174 166.534C115.06 166.014 120.342 165.808 125.953 166.096C126.596 166.123 127.226 166.164 127.842 166.206" stroke="#4A121A" stroke-width="5.19777" stroke-linecap="round" stroke-linejoin="round"/>
<path d="M113.431 160.234L111.556 166.589" stroke="#4A121A" stroke-width="5.19777" stroke-linecap="round" stroke-linejoin="round"/>
<path d="M110.084 133.386L120.161 121.798L123.94 139.936L110.084 133.386Z" fill="#C2A800"/>
<path d="M83.3811 134.897L77.335 122.805L73.0524 141.447L83.3811 134.897Z" fill="#C2A800"/>
<path d="M113.431 160.234L113.062 159.878C112.295 159.166 111.748 158.399 110.667 158.112C109.586 157.824 88.5102 157.769 87.4017 158.112C86.2931 158.454 85.7868 159.166 85.0067 159.919L84.6372 160.276" stroke="#4A121A" stroke-width="5.19777" stroke-linecap="round" stroke-linejoin="round"/>
<path d="M86.4711 166.534L86.3342 166.082C86.3479 165.74 85.0068 161.207 84.7604 160.728L84.6236 160.276" stroke="#4A121A" stroke-width="5.19777" stroke-linecap="round" stroke-linejoin="round"/>
<path d="M126.993 138.514C126.788 140.897 127.376 143.732 126.542 146.019C124.995 150.251 117.797 157.591 113.814 159.988L113.431 160.221" stroke="#4A121A" stroke-width="5.19777" stroke-linecap="round" stroke-linejoin="round"/>
<path d="M69.7066 147.69L68.776 140.527C69.0771 138.185 69.8024 135.884 71.3215 135.734C73.9217 135.816 73.8533 137.911 73.429 139.911L74.3596 147.073C74.7018 150.141 70.1582 150.744 69.7066 147.676V147.69Z" fill="#4A121A"/>
<path d="M72.0331 147.388L72.3342 147.703C75.0165 151.593 82.5161 156.592 84.6236 160.289" stroke="#4A121A" stroke-width="5.19777" stroke-linecap="round" stroke-linejoin="round"/>
<path d="M119.028 109.316L89.1671 143.211" stroke="#4A121A" stroke-width="5.19777" stroke-linecap="round" stroke-linejoin="round"/>
<path d="M72.3479 109.59C61.9744 111.63 51.5736 113.712 41.118 115.232C41.118 105.7 48.2891 94.2509 58.6489 94.3194C59.949 94.3194 72.3205 106.042 76.4398 108.247C90.0704 115.547 104.864 115.876 118.851 109.384L119.152 109.233C119.932 108.85 120.698 108.412 121.464 107.987C123.38 106.933 125.392 105.988 127.171 104.7C129.566 102.975 137.805 94.5385 139.474 94.3879C140.172 94.3194 147.083 96.5243 147.877 97.0173C153.68 100.647 156.595 108.439 156.253 115.109C145.893 113.452 135.574 111.315 125.296 109.151" stroke="#4A121A" stroke-width="5.19777" stroke-linecap="round" stroke-linejoin="round"/>
<path d="M93.0674 132.036L84.9657 114.725" stroke="#4A121A" stroke-width="5.19777" stroke-linecap="round" stroke-linejoin="round"/>
<path d="M119.152 112.397C136.6 121.559 146.659 142.225 146.495 161.494C146.44 167.274 142.745 185.379 138.845 189.309C134.11 194.089 129.525 185.612 126.227 183.434L125.912 183.119" fill="#C2A800"/>
<path d="M119.152 112.397C136.6 121.559 146.659 142.225 146.495 161.494C146.44 167.274 142.745 185.379 138.845 189.309C134.11 194.089 129.525 185.612 126.227 183.434M126.227 183.434L125.912 183.119M126.227 183.434L123.688 166.135" stroke="#4A121A" stroke-width="5.19777" stroke-linecap="round" stroke-linejoin="round"/>
<path d="M79.6023 112.225C61.4142 122.247 51.7121 141.384 51.8938 161.579C51.9218 164.604 52.2713 168.535 52.8305 171.505C53.3897 174.474 54.3264 177.774 55.3609 180.51C59.7366 192.099 61.0228 194.189 71.396 185.418" fill="#C2A800"/>
<path d="M79.6023 112.225C61.4142 122.247 51.7121 141.384 51.8938 161.579C51.9218 164.604 52.2713 168.535 52.8305 171.505C53.3897 174.474 54.3264 177.774 55.3609 180.51C59.7366 192.099 61.0228 194.189 71.396 185.418M72.0448 185.533L75.8235 142.959" stroke="#4A121A" stroke-width="5.19777" stroke-linecap="round" stroke-linejoin="round"/>
<path d="M85.39 133.638L77.2883 116.328" stroke="#4A121A" stroke-width="5.19777" stroke-linecap="round" stroke-linejoin="round"/>
<path d="M121.834 117.231L91.9726 151.127" stroke="#4A121A" stroke-width="5.19777" stroke-linecap="round" stroke-linejoin="round"/>
<path d="M58.731 92.8403L58.6078 91.868C58.4846 91.3202 58.3204 90.7587 57.9783 90.3067C53.12 84.0343 51.2451 85.1025 48.3301 75.7624C41.3369 53.3981 52.8326 29.5822 72.8131 18.2151C118.645 -7.86056 175.453 44.4552 140.679 91.5804C140.487 91.8406 140.323 92.1145 140.131 92.3747C139.981 92.5938 139.871 92.854 139.68 93.0321C139.721 92.854 139.803 92.6897 139.857 92.5117C139.94 92.1693 140.131 91.8543 140.159 91.5119C137.914 85.4997 141.595 63.8065 138.831 59.5473C138.065 58.3558 128.157 55.8222 125.269 53.6583C121.437 50.7823 119.932 47.2353 117.373 43.4417C112.637 46.2355 109.668 50.1387 104.796 53.0694C91.4662 61.0675 73.4153 62.437 58.3067 62.8067C57.9646 71.9551 58.5257 81.1172 58.6625 90.2519C58.6625 90.8271 58.7036 91.4023 58.7036 91.9775C58.7036 92.2651 58.7173 92.5527 58.7173 92.8403H58.731Z" stroke="#4A121A" stroke-width="5.19777" stroke-linecap="round" stroke-linejoin="round"/>
<path d="M98.0352 165.685L98.61 165.726L98.7468 166.37C98.8289 166.397 98.9384 166.37 99.0068 166.37C99.089 166.411 99.3079 166.096 99.3079 166.562C98.7194 169.451 105.617 178.586 104.905 180.243C104.276 181.708 97.433 181.585 95.9003 181.352C94.5865 181.161 93.3274 181.489 93.0674 179.75C92.9579 179.052 97.2141 168.438 97.8025 166.466L97.693 166.233L97.8846 166.205C97.9394 166.027 97.9804 165.849 98.0352 165.671V165.685Z" fill="#4A121A"/>
<path d="M151.682 0.904496C154.61 0.507335 155.691 5.1911 153.091 5.50609C150.915 5.7663 148.89 1.28796 151.682 0.904496Z" fill="#4A121A"/>
<path d="M152.161 9.86103C156.294 9.13519 154.473 14.942 151.449 14.2161C149.725 13.8053 150.08 10.2171 152.161 9.86103Z" fill="#4A121A"/>
<path d="M158.757 9.86097C161.083 9.05296 163.588 12.7096 161.357 13.9832C159.551 15.0104 157.375 12.6959 157.936 10.7101C157.936 10.6553 158.702 9.87467 158.757 9.86097Z" fill="#4A121A"/>
<path d="M159.934 0.904345C162.821 0.520879 162.657 4.13641 160.645 5.0266C157.033 6.60155 157.115 1.27412 159.934 0.904345Z" fill="#4A121A"/>
<path d="M17.7024 119.587C20.6311 119.19 21.7122 123.874 19.112 124.189C16.936 124.449 14.9106 119.971 17.7024 119.587Z" fill="#4A121A"/>
<path d="M18.1814 128.544C22.3143 127.818 20.4942 133.625 17.4697 132.899C15.7454 132.488 16.1012 128.9 18.1814 128.544Z" fill="#4A121A"/>
<path d="M24.7777 128.544C27.1042 127.736 29.6086 131.392 27.3779 132.666C25.5714 133.693 23.3955 131.379 23.9566 129.393C23.9703 129.338 24.7229 128.558 24.7777 128.544Z" fill="#4A121A"/>
<path d="M25.9683 119.587C28.8559 119.203 28.6917 122.819 26.6799 123.709C23.067 125.284 23.1491 119.957 25.9683 119.587Z" fill="#4A121A"/>
<path d="M32.6742 11.2715C33.8511 11.1483 40.2011 17.1878 40.338 17.9274C40.379 18.1465 40.3927 18.9545 40.338 19.1326C40.2148 19.5982 34.0701 25.6652 33.6185 25.7884C32.2363 26.1719 25.9547 20.2282 25.7221 19.1326C25.5989 18.5574 25.7221 17.7493 25.9547 17.1878C26.1737 16.6674 32.0857 11.3126 32.6742 11.2578V11.2715Z" fill="#4A121A"/>
<path d="M32.6742 16.1196C33.4679 15.969 34.768 17.9822 35.3839 18.4204C33.2763 21.5018 32.77 21.5155 30.4298 18.6669C30.4024 18.393 32.51 16.1607 32.6742 16.1196Z" fill="#F9B452"/>
<path d="M181.94 117.752C182.829 117.533 183.541 117.82 184.294 118.231C184.649 118.423 189.987 123.75 190.069 124.161C190.11 124.367 190.124 125.435 190.069 125.613C189.946 126.065 183.801 131.926 183.349 132.036C183.144 132.077 182.118 132.091 181.94 132.036C181.447 131.885 175.535 125.818 175.453 125.134C175.289 123.709 180.913 117.998 181.94 117.752Z" fill="#4A121A"/>
<path d="M182.651 122.354C183.213 122.354 184.8 124.49 185.361 124.901C185.033 125.271 182.829 127.448 182.651 127.448C182.46 127.448 180.01 124.956 180.407 124.421C180.845 124.065 182.213 122.367 182.651 122.367V122.354Z" fill="#F9B452"/>
<path d="M133.029 165.124C131.838 153.866 125.242 143.828 115.566 138.391C115.511 138.363 115.47 138.336 115.416 138.309C110.434 135.542 104.851 134.104 99.1985 134.118C93.5464 134.131 87.8533 135.638 82.8445 138.473C78.821 140.76 75.2766 143.869 72.4574 147.608C72.4163 147.649 72.3889 147.703 72.3479 147.745C68.6255 152.73 66.2579 158.701 65.56 164.946" fill="#F2F2F2"/>
<path d="M133.029 165.124C131.838 153.866 125.242 143.828 115.566 138.391C115.511 138.363 115.47 138.336 115.416 138.309C110.434 135.542 104.851 134.104 99.1985 134.118C93.5464 134.131 87.8533 135.638 82.8445 138.473C78.821 140.76 75.2766 143.869 72.4574 147.608C72.4163 147.649 72.3889 147.703 72.3479 147.745C68.6255 152.73 66.2579 158.701 65.56 164.946" stroke="#B91832" stroke-width="7.47085" stroke-linecap="round" stroke-linejoin="round"/>
<path d="M97.3236 163.877C97.6794 163.932 98.0215 164.028 98.3774 164.069C98.5963 164.097 98.9385 164.069 99.089 164.151C99.1437 164.179 99.2258 164.151 99.2669 164.151C103.318 164.631 107.286 165.247 111.365 165.384C113.842 165.48 131.318 165.589 132.399 165.165" fill="#F2F2F2"/>
<path d="M97.3236 163.877C97.6794 163.932 98.0215 164.028 98.3774 164.069C98.5963 164.097 98.9385 164.069 99.089 164.151C99.1437 164.179 99.2258 164.151 99.2669 164.151C103.318 164.631 107.286 165.247 111.365 165.384C113.842 165.48 131.318 165.589 132.399 165.165" stroke="#B91832" stroke-width="7.47085" stroke-linecap="round" stroke-linejoin="round"/>
<path d="M83.1319 138.815C86.6627 144.951 90.1388 151.113 93.8065 157.167C94.2718 157.92 97.9668 163.384 97.6383 163.699C94.2581 165.945 90.8915 165.398 87.128 165.425C84.2815 165.452 67.6538 165.562 66.2306 165.028" fill="#F2F2F2"/>
<path d="M83.1319 138.815C86.6627 144.951 90.1388 151.113 93.8065 157.167C94.2718 157.92 97.9668 163.384 97.6383 163.699C94.2581 165.945 90.8915 165.398 87.128 165.425C84.2815 165.452 67.6538 165.562 66.2306 165.028" stroke="#B91832" stroke-width="7.47085" stroke-linecap="round" stroke-linejoin="round"/>
<path d="M99.2396 134.556C99.2669 141.773 99.1985 149.004 99.2396 156.222C99.2396 158.92 99.1027 161.604 99.4722 164.288C99.0753 166.247 103.742 172.409 103.249 173.546C102.825 174.532 98.1995 174.45 97.1594 174.299C96.2699 174.176 95.4214 174.395 95.2435 173.217C95.175 172.738 98.0489 165.562 98.4458 164.233C98.4595 164.179 98.4869 164.11 98.5006 164.055C98.5416 163.932 98.569 163.809 98.5964 163.699C98.8564 162.795 99.1164 161.864 99.2259 160.933" fill="#F2F2F2"/>
<path d="M99.2396 134.556C99.2669 141.773 99.1985 149.004 99.2396 156.222C99.2396 158.92 99.1027 161.604 99.4722 164.288C99.0753 166.247 103.742 172.409 103.249 173.546C102.825 174.532 98.1995 174.45 97.1594 174.299C96.2699 174.176 95.4214 174.395 95.2435 173.217C95.175 172.738 98.0489 165.562 98.4458 164.233C98.4595 164.179 98.4869 164.11 98.5006 164.055C98.5416 163.932 98.569 163.809 98.5964 163.699C98.8564 162.795 99.1164 161.864 99.2259 160.933" stroke="#B91832" stroke-width="7.47085" stroke-linecap="round" stroke-linejoin="round"/>
<path d="M106.137 154.948C106.63 156.016 107.095 157.112 107.588 158.18C107.875 158.797 108.108 159.427 108.422 160.029L108.504 160.18C109.257 161.618 110.174 162.987 110.982 164.412" fill="#F2F2F2"/>
<path d="M106.137 154.948C106.63 156.016 107.095 157.112 107.588 158.18C107.875 158.797 108.108 159.427 108.422 160.029L108.504 160.18C109.257 161.618 110.174 162.987 110.982 164.412" stroke="#B91832" stroke-width="7.47085" stroke-linecap="round" stroke-linejoin="round"/>
<path d="M125.871 148.155L103.14 163.823C102.196 164.425 101.046 164.247 99.9786 164.22" fill="#F2F2F2"/>
<path d="M125.871 148.155L103.14 163.823C102.196 164.425 101.046 164.247 99.9786 164.22" stroke="#B91832" stroke-width="7.47085" stroke-linecap="round" stroke-linejoin="round"/>
<path d="M72.6079 147.991C78.3421 151.963 84.0352 155.989 89.783 159.933C91.6168 161.193 93.4507 162.426 95.2845 163.686" fill="#F2F2F2"/>
<path d="M72.6079 147.991C78.3421 151.963 84.0352 155.989 89.783 159.933C91.6168 161.193 93.4507 162.426 95.2845 163.686" stroke="#B91832" stroke-width="7.47085" stroke-linecap="round" stroke-linejoin="round"/>
<path d="M104.016 156.756C102.456 156.523 100.854 156.427 99.2806 156.208H99.1164C96.9815 155.633 95.5993 156.537 93.8065 157.4C92.6022 157.989 90.8505 158.865 89.9609 159.906C89.8925 159.988 89.8104 160.07 89.742 160.152C88.7292 161.453 88.305 163.001 87.5797 164.453" fill="#F2F2F2"/>
<path d="M104.016 156.756C102.456 156.523 100.854 156.427 99.2806 156.208H99.1164C96.9815 155.633 95.5993 156.537 93.8065 157.4C92.6022 157.989 90.8505 158.865 89.9609 159.906C89.8925 159.988 89.8104 160.07 89.742 160.152C88.7292 161.453 88.305 163.001 87.5797 164.453" stroke="#B91832" stroke-width="7.47085" stroke-linecap="round" stroke-linejoin="round"/>
<path d="M115.347 138.815C112.268 144.129 109.312 149.511 106.219 154.811C106.164 154.907 106.11 155.003 106.055 155.099C105.713 155.674 105.371 156.235 105.028 156.811C105.001 156.852 104.974 156.907 104.946 156.948C103.769 158.947 102.551 160.933 101.374 162.932" fill="#F2F2F2"/>
<path d="M115.347 138.815C112.268 144.129 109.312 149.511 106.219 154.811C106.164 154.907 106.11 155.003 106.055 155.099C105.713 155.674 105.371 156.235 105.028 156.811C105.001 156.852 104.974 156.907 104.946 156.948C103.769 158.947 102.551 160.933 101.374 162.932" stroke="#B91832" stroke-width="7.47085" stroke-linecap="round" stroke-linejoin="round"/>
<ellipse cx="79.5775" cy="76.1392" rx="4.85563" ry="5.20247" fill="#4A121A"/>
<path d="M87.9014 95.2151C90.7513 98.6483 93.6141 99.2015 98.8293 99.3771C103.732 99.1552 105.388 98.8612 110.099 95.2151" stroke="#4A121A" stroke-width="3.46831" stroke-linecap="round"/>
<path d="M121.197 70.5901C121.197 70.5901 114.261 74.4052 113.22 75.0989C112.18 75.7926 121.197 79.9545 121.197 79.9545" stroke="#4A121A" stroke-width="3.46831" stroke-linecap="round"/>
</g>
<defs>
<clipPath id="clip0_163_1184">
<rect width="197" height="221.246" fill="white" transform="translate(0.5 0.876953)"/>
</clipPath>
</defs>
</svg>
