<svg width="245" height="121" viewBox="0 0 245 121" fill="none" xmlns="http://www.w3.org/2000/svg">
<g filter="url(#filter0_d_280_417)">
<rect x="4" width="237" height="113.824" rx="3.12583" fill="url(#paint0_linear_280_417)"/>
<path d="M183.719 9H201.412V103.54L183.719 99.5248V9Z" fill="#F7931E"/>
<path d="M166.037 9H183.719V99.5248L166.037 94.0854V9Z" fill="#FFFF00"/>
<path d="M148.347 9H166.037V94.0854L148.347 87.2551V9Z" fill="white"/>
<path d="M130.658 9H148.347V87.2551L130.658 83.3515V9Z" fill="#F7931E"/>
<path d="M112.969 9H130.658V83.3515L121.25 79.6354L112.969 83.3515V9Z" fill="#FFFF00"/>
<path d="M95.2825 9H112.969V83.3515L95.2825 87.2551V9Z" fill="white"/>
<path d="M77.5932 9H95.2825V87.2551L77.5932 94.0854V9Z" fill="#F7931E"/>
<path d="M59.9105 9H77.5932V94.0854L59.9105 98.9032V9Z" fill="#FFFF00"/>
<path d="M43.3506 10.1477H61.0399V100.048L43.3506 104.688V10.1477Z" fill="#F7931E"/>
<path d="M198.916 10.1477H44.7205C43.993 10.1477 43.4033 10.7367 43.4033 11.4632V15.0149C43.4033 15.7414 43.993 16.3303 44.7205 16.3303H198.916C199.643 16.3303 200.233 15.7414 200.233 15.0149V11.4632C200.233 10.7367 199.643 10.1477 198.916 10.1477Z" fill="#009245"/>
<path d="M200.728 104.824C199.603 75.5883 202.915 46.2701 201.345 17.0407C201.272 15.6792 202.533 10.1346 199.365 9.59521L44.7802 10.1115C42.5202 10.4766 43.4671 15.6595 43.3747 16.9552C41.3291 46.0892 43.7145 75.3187 42.2727 104.459L121.454 79.6334L200.213 104.657L200.728 104.821V104.824Z" stroke="#46484C" stroke-width="4" stroke-linecap="round" stroke-linejoin="round"/>
<path d="M41.3061 14.3145H16" stroke="#46484C" stroke-width="4" stroke-linecap="round" stroke-linejoin="round"/>
<path d="M201.777 14.3145H228.02" stroke="#46484C" stroke-width="4" stroke-linecap="round" stroke-linejoin="round"/>
<rect width="154" height="17.9786" transform="translate(45.0203 48.9727)" fill="white"/>
<path d="M59.7865 65.1654C59.5989 65.4186 59.3795 66.3394 58.9217 66.1651C57.3766 65.56 54.7791 61.7419 53.66 57.7693C53.4566 57.0458 53.2181 55.5955 53.2181 55.5955C52.2675 59.9003 49.8735 63.7743 47.1076 65.3792C46.7674 65.5765 46.0203 65.8692 46.0203 65.8692L47.5304 63.8335C49.3648 61.2519 51.0785 58.1968 51.6221 54.6944C49.8068 54.7733 48.3984 55.0857 47.3969 55.4376C46.8691 55.2436 46.3954 54.8325 46.6847 54.1452C48.0423 53.5203 50.1311 53.2244 51.7588 53.2046C51.8606 51.8333 51.9464 50.7579 51.9114 49.426C52.4201 49.1333 53.304 49.3865 53.6759 49.8568C53.7618 50.9914 53.6251 52.0668 53.5583 53.2046C54.7791 53.2441 56.6485 53.3427 57.7676 53.4578C58.8709 53.6913 59.4495 54.1616 59.3128 54.9048C59.0584 55.0035 58.785 55.0824 58.5148 55.043C57.0714 54.8654 55.2719 54.6714 53.5742 54.7108C54.6106 59.5254 58.5466 63.087 60.6512 64.5734C60.4827 64.8859 60.0408 64.7872 59.7865 65.1621V65.1654Z" fill="black"/>
<path d="M65.064 61.6434C64.6412 61.6631 64.0784 61.3704 64.0625 60.9988C64.0467 60.7456 64.3519 60.5877 64.5712 60.5285C65.7921 60.2358 69.2225 60.2358 70.0205 60.1766C70.0205 60.1766 70.8344 59.1966 71.1078 58.2396C70.615 58.2002 69.6294 58.2396 69.054 58.2988C69.2575 58.6902 69.817 58.9039 69.817 59.3545C69.817 59.6866 69.4768 59.8839 68.8823 59.9793C68.5103 59.4893 68.1352 58.2561 68.1352 58.2561C67.9985 58.5882 67.5407 58.9006 67.2863 58.8809C66.9652 58.8612 66.7427 58.5882 66.6409 58.0785C66.4724 57.2169 66.4375 55.612 66.4724 54.849C67.0479 54.3985 67.7441 54.8293 67.7441 54.8293C68.6439 54.4774 71.0378 54.3985 72.1411 54.5563C72.6338 54.6353 73.4477 54.849 73.7021 55.418C73.7021 56.3191 73.5654 57.5523 73.2792 58.2561C73.0758 58.5093 72.7515 58.6869 72.4653 58.7066C72.1951 58.5488 72.0425 58.2758 72.0425 58.2758L71.4829 58.2561C71.4829 58.2561 72.0775 58.6869 72.2142 59.019C71.9948 59.5682 71.0951 60.1733 71.0951 60.1733C72.8437 60.1931 74.6781 60.2523 76.4076 60.466C76.627 60.6601 76.8305 61.229 76.6461 61.5217C73.5558 61.2093 69.143 60.9166 65.0704 61.6401H65.064V61.6434ZM70.8852 51.4289C70.8852 51.9583 70.8503 52.5634 70.8503 52.5634C71.378 52.5634 72.513 52.6226 73.0058 52.8956C73.2602 53.0337 73.2252 53.4448 73.1425 53.7375C72.4812 53.7375 69.9855 53.2869 67.5915 54.0104C67.2704 53.9512 66.9302 53.8131 66.8094 53.4053C67.1305 52.9548 68.5072 52.741 69.391 52.6621C69.391 52.6621 69.3401 52.0175 69.3401 51.5078C68.6788 51.5275 67.6424 51.6656 66.3707 51.8399C65.8111 52.0734 65.6077 52.2313 65.064 51.9978C64.7938 51.8794 64.5204 51.6459 64.6221 51.2743C65.1308 50.7251 67.9476 50.5311 69.3242 50.4719C69.3401 49.7878 69.3401 49.4721 69.4419 49.0051C70.0205 48.9065 70.5101 49.0446 70.8344 49.2584C70.8344 49.2584 70.9011 49.7878 70.9011 50.4324C72.2587 50.4324 75.0437 50.5705 75.4507 50.7645C75.6541 51.0572 75.7718 51.2546 75.6192 51.7051C74.6336 51.5867 72.5798 51.4519 70.8821 51.4321H70.8852V51.4289ZM73.8006 65.912C73.6321 66.3823 73.3428 66.6158 72.9009 66.6158C72.459 66.6158 72.3223 65.9515 72.3223 65.9515C71.1173 66.2047 69.2002 66.2047 68.0271 65.9909C68.0271 65.9909 67.9095 66.7144 67.3658 66.9512C66.9589 66.9118 66.6854 66.5993 66.5169 66.0699C66.1609 64.9156 66.075 63.0772 66.145 62.2912C66.6378 62.1728 67.1973 62.3702 67.1973 62.3702C67.9953 61.765 70.9329 61.8012 72.2714 61.8999C72.831 61.9393 73.985 62.1169 74.2743 62.7812C74.2584 63.8566 74.055 65.2083 73.7975 65.912H73.8006ZM67.5566 63.2285C67.5407 63.8172 67.6233 64.4025 67.795 65.0109C68.558 65.1885 71.0379 65.1293 72.4622 64.9715C72.5989 64.3664 72.7006 63.6988 72.6656 63.0147C71.4766 62.801 68.9999 62.801 67.5566 63.2285ZM67.9794 55.7337C67.9126 56.4177 67.9794 57.0261 68.0652 57.4175C69.321 57.2991 70.9679 57.2201 72.0711 57.378C72.1887 56.7532 72.2746 56.1645 72.1728 55.5594C70.7644 55.4213 69.4228 55.4805 67.9794 55.737V55.7337Z" fill="black"/>
<path d="M87.5319 56.125C86.718 55.9112 85.7324 55.8718 84.9503 55.9112L84.9344 56.5953L86.0885 57.2398C87.1249 57.8088 87.516 58.4928 87.516 59.3347C87.516 59.7852 87.3475 60.0582 87.0073 60.1174C86.718 60.1568 86.4795 59.999 86.2951 59.6471C86.1266 59.1176 85.3604 57.789 84.9026 57.1214C84.8359 58.94 84.9185 63.7152 85.1411 65.7311C85.1252 65.9843 85.0393 66.3362 84.8867 66.5138C84.3431 66.6322 83.8185 66.4941 83.6818 65.7903C83.5292 63.5968 83.5292 60.3114 83.615 57.8844C82.852 59.703 82.1398 61.0546 81.3069 62.1695C80.8141 62.8338 79.7109 63.4422 79.7109 63.4422C80.1019 62.5608 80.9667 60.8376 81.5612 59.4893C82.089 58.2955 82.5277 57.1609 82.817 56.1611C82.1557 56.2203 81.1034 56.6314 80.4739 56.8452C80.1019 56.9833 79.8444 56.5328 79.7935 55.8652C80.7282 55.3357 82.5786 54.9444 83.5451 54.9049C83.5451 54.3952 83.58 53.2606 83.5451 52.616C82.1875 53.0665 80.5248 53.4974 79.7586 53.4579C80.5915 52.833 84.7818 50.2876 85.885 49.699C86.3269 49.8766 86.718 50.3041 86.8706 50.679C86.4287 51.442 85.2078 51.8925 84.5974 52.2049C84.5974 52.2049 85.0552 52.5963 85.1252 52.8692C85.0584 53.4579 84.9885 54.28 84.9726 54.7273C85.3127 54.747 85.8373 54.7076 86.2951 54.7668C87.2457 54.8852 87.8403 55.0989 87.8403 55.4705C87.8403 55.6481 87.7385 55.8619 87.535 56.1151V56.125H87.5319ZM89.8273 59.5682C89.4553 59.7458 88.74 59.7063 88.5556 59.236C88.3012 58.5915 88.4697 53.5401 88.5715 51.4847C89.131 51.386 89.6397 51.4452 90.0308 51.9747C89.7764 54.2241 89.8782 57.5128 89.8273 59.5682ZM91.9479 66.0073C91.6935 65.0273 91.0322 64.4419 90.1484 64.2249C90.1484 64.2249 91.5409 64.146 92.2022 64.0309C92.2022 59.7458 92.1672 54.4412 92.0655 50.2909C92.5933 50.212 92.9493 50.2909 93.423 50.6034C93.7441 52.1885 93.795 59.3709 93.6106 63.383C93.5439 64.8695 93.2037 65.9481 91.9479 66.004V66.0073Z" fill="black"/>
<path d="M105.679 59.4728C105.73 60.5482 105.39 61.1763 104.627 61.2914L104.525 60.216C104.032 60.5285 102.913 61.3506 102.538 62.1925C102.3 62.722 102.182 63.5442 102.487 63.8566C103.218 64.5998 105.899 63.9355 106.697 63.7382C107.428 63.5606 107.917 63.679 108.073 64.5406C106.325 65.3036 102.506 65.7541 101.2 64.2479C100.961 63.1528 101.133 62.2912 101.54 61.5677C102.22 60.3344 103.559 59.4925 104.408 58.848C104.392 58.3382 104.255 57.4963 104.036 57.0294C103.288 56.3651 101.982 57.0096 101.505 57.6937C101.114 58.2626 100.742 59.0256 100.453 59.5912C100.316 59.8444 99.4669 59.2196 99.5687 58.9072C100.096 57.3615 100.961 55.6975 101.537 54.2702C100.739 54.2702 99.5178 54.5037 99.3461 53.6815C99.3811 53.5434 99.5146 53.1323 99.5146 53.1323C100.109 53.1915 101.127 53.3099 101.959 53.2507C102.265 52.6061 102.621 51.5669 102.977 50.7448C103.505 50.4521 104.217 51.2545 104.166 51.4288C104.029 51.8793 103.587 52.6423 103.419 53.0731C104.013 53.0337 104.862 52.7607 105.253 52.6226C105.711 52.5634 106.086 52.741 106.255 53.425C105.609 53.9545 103.88 54.0696 102.929 54.1485C102.659 54.678 102.045 56.0461 102.045 56.0461C102.386 55.8323 102.757 55.7139 103.149 55.7139C104.318 55.7139 105.508 56.6545 105.558 58.1409C106.29 57.7101 107.24 57.0458 108.07 56.4966L108.426 55.7534C108.9 55.931 109.291 56.3585 109.326 57.1806C108.156 57.9633 106.83 58.8052 105.676 59.4695H105.679V59.4728Z" fill="black"/>
<path d="M117.423 54.1483C117.423 54.1483 117.951 54.441 117.932 55.5197C117.881 58.7097 117.83 62.8205 118.069 64.7969C117.983 65.3461 117.764 65.6585 117.322 65.8723C117.051 65.7539 116.813 65.481 116.711 65.0304C116.218 63.0145 116.473 55.6183 116.473 55.6183C115.455 56.9305 114.216 57.3021 114.216 57.3021C115.675 54.954 117.134 51.4714 117.779 49.6692C118.186 49.7284 118.949 50.0803 119 50.5308C119.035 50.8827 117.948 53.3492 117.423 54.1516V54.1483ZM124.45 53.5037C124.45 53.5037 124.516 55.3618 124.516 56.4602C125.279 56.401 125.925 56.3221 126.688 56.3813C127.028 56.4208 127.419 56.5392 127.384 57.0061C127.349 57.437 127.095 57.5553 126.723 57.5159C126.281 57.4764 125.483 57.5159 124.907 57.6343C124.669 57.5159 124.485 57.3416 124.485 57.3416C124.485 57.3416 124.469 59.1405 124.469 60.0218C125.149 60.0218 125.709 59.864 126.284 59.864C126.777 59.864 127.098 59.9824 127.25 60.2159C127.352 60.548 127.184 60.8407 127.184 60.8407C126.538 60.8012 125.81 61.0183 125.146 61.0347C124.653 61.0347 124.45 60.6828 124.45 60.6828C124.465 62.6198 124.348 65.9085 124.348 65.9085C123.737 66.3196 123.057 65.9677 122.771 65.5171C122.908 61.6826 122.974 57.1607 122.908 53.5202C122.348 53.5202 121.652 53.4807 121.652 53.4807C121.175 54.5758 119.919 56.8845 118.409 57.2758C118.409 57.2758 120.682 52.7934 121.378 49.781C121.887 49.508 122.431 49.9586 122.65 50.4453C122.463 51.3267 122.106 52.2837 122.106 52.2837C123.432 52.2245 125.976 52.2639 127.435 51.991C127.994 52.0896 128.284 52.5204 128.3 53.0861C127.231 53.3788 125.616 53.438 124.446 53.4972V53.5037H124.45Z" fill="black"/>
<path d="M144.139 66.3393C142.848 66.0861 141.404 63.3664 140.864 62.074C140.031 63.3664 139.049 64.4615 138.165 65.1258C137.774 65.3988 136.96 65.7704 136.96 65.7704C137.809 64.7345 139.573 61.8372 140.168 60.4461C139.456 58.4499 138.912 55.4737 138.658 53.5959C137.03 53.6551 135.399 53.8294 134.057 54.0661C134.092 54.1845 134.143 54.5364 134.143 54.7896C134.092 55.7302 133.99 56.7069 133.822 57.5685C134.041 57.5291 135.113 57.391 135.688 57.391C136.264 57.391 137.198 57.9961 137.3 58.7031L137.198 59.2523C137.097 60.6237 136.877 63.3237 136.06 64.4582C135.892 64.7115 135.278 65.3199 134.703 65.2804C134.464 64.2807 133.971 63.8696 133.278 63.3237C133.364 63.3237 134.788 63.3631 135.297 63.0507C135.501 61.9951 135.755 59.9988 135.739 58.6472C135.399 58.5288 134.671 58.5683 134.28 58.667C134.009 58.7459 133.701 58.6867 133.618 58.667C133.399 59.8213 132.652 62.8731 131.752 64.2839C131.514 64.6753 130.954 65.1653 130.954 65.1653C131.787 61.9556 132.347 58.3743 132.601 54.3621C132.515 54.3227 132.092 54.1648 131.87 53.6781C131.87 53.6781 132.022 53.1486 132.347 53.0532C133.129 52.8 136.709 52.4646 138.524 52.3889C138.438 51.4484 138.438 50.3138 138.575 49.689C139.134 49.4357 139.694 49.7087 140.018 50.2579C140.002 50.863 140.018 51.4911 140.034 52.3528C141.478 52.3725 142.819 52.4909 143.719 52.6849C144.177 52.7836 144.247 53.1947 144.212 53.6057C143.891 53.7241 143.414 53.7998 142.889 53.7241C142.107 53.6255 141.141 53.5663 140.123 53.5663C140.241 54.8982 140.546 56.9503 141.039 58.6341C141.583 57.3614 142.056 55.8946 142.346 54.7403C143.026 54.839 143.414 55.4638 143.414 56.0919C142.972 57.6968 142.412 59.1043 141.732 60.456C142.155 61.6892 142.784 63.0408 143.684 64.0965C144.161 63.567 144.854 62.2581 144.905 62.1398C144.803 64.057 144.549 65.4284 144.142 66.3459V66.3393H144.139ZM141.996 51.82C141.827 51.5865 141.726 51.3103 141.64 50.9978C141.538 50.7052 141.471 50.3927 141.385 50.0968C142.066 49.8435 142.911 50.5473 142.911 51.3103C142.911 51.9548 142.368 51.8792 141.996 51.82Z" fill="black"/>
<path d="M157.136 54.9115C157.136 56.2434 156.814 58.6309 156.814 58.6309C156.916 59.1604 157.018 60.0385 157.034 60.7258C157.069 62.995 155.25 64.5209 153.556 65.1885C152.859 65.4614 151.772 65.8331 151.197 65.5601C153.657 64.2085 155.524 62.9193 155.813 60.9034C155.813 60.9034 155.285 61.3342 154.726 61.548C153.587 61.9788 152.3 61.3309 151.941 60.4529C151.925 58.3975 153.314 56.9307 154.777 57.0096C155.098 57.0294 155.438 57.128 155.762 57.3023C155.848 56.6972 155.829 55.5791 155.813 55.0924C154.37 55.1516 150.434 55.5626 149.397 54.8786C149.397 54.8786 149.687 53.8986 150.211 53.8427C151.569 53.9019 154.675 53.8821 155.813 53.8427C155.813 52.8429 155.899 51.123 155.285 50.3206C155.555 49.8305 156.643 49.7516 156.83 50.0476C157.237 50.6922 157.186 52.3957 157.136 53.7276C157.883 53.6684 159.256 53.5105 159.952 53.4546C160.48 53.4152 160.734 54.5497 160.734 54.5497C159.819 54.7076 157.867 54.8819 157.136 54.9214V54.9115ZM154.405 58.1804C153.877 58.358 153.607 59.0026 153.607 59.6077C153.607 60.3312 153.998 60.979 154.827 60.6239C155.406 60.3706 155.609 59.2525 155.575 58.5093C155.253 58.0982 154.691 58.0785 154.405 58.1771V58.1804Z" fill="black"/>
<path d="M174.415 64.7345C173.261 65.3791 170.988 65.5567 169.935 64.6161C169.306 64.0472 169.137 63.031 169.783 62.2878C170.921 60.9756 173.382 61.6827 174.755 62.7186C175.076 62.4062 175.349 61.584 175.349 60.9361C175.365 59.6634 174.72 58.2164 173.738 57.9994C172.294 57.687 170.616 58.1934 169.239 59.8575C168.934 60.2291 168.425 61.0315 168.253 61.2091C167.932 61.5413 167.37 60.9164 167.405 60.6204C167.471 59.8969 168.237 58.7985 168.492 58.3513C169.713 56.2169 171.054 54.2405 172.192 52.1292C171.191 52.2673 170.053 52.4613 169.07 52.6389C168.73 52.3265 168.648 51.5833 168.663 51.1722C169.935 51.2708 172.161 51.0735 173.248 50.9749C173.502 51.2281 173.741 51.7773 173.877 52.1884C172.673 53.8524 171.331 55.7302 170.38 57.608C171.91 56.8648 174.116 56.5721 175.423 57.7856C175.982 58.4105 176.561 59.4891 176.561 60.798C176.561 62.6956 175.712 64.0077 174.421 64.7312H174.415V64.7345ZM170.905 62.6824C170.6 63.2119 170.616 63.6032 170.819 63.8565C171.073 64.1689 171.601 64.307 172.11 64.3267C172.841 64.3465 173.655 63.9748 173.96 63.5835C173.35 62.86 171.906 62.4686 170.905 62.6824Z" fill="black"/>
<path d="M189.097 64.3629C188.264 64.1656 187.927 63.6394 187.908 63.0902C187.892 62.3864 188.416 61.6432 189.097 61.584C189.488 61.5643 189.93 61.7616 190.317 62.3469C190.403 63.5802 189.876 64.3432 189.097 64.3629ZM188.079 59.8443C188.095 57.5357 188.044 53.8162 188.181 51.0965C188.725 50.7052 189.71 50.8236 190.031 51.33C190.015 54.2076 189.863 56.73 190.031 59.6075C189.64 60.1764 188.639 60.3902 188.079 59.841V59.8443Z" fill="black"/>
</g>
<defs>
<filter id="filter0_d_280_417" x="0.874172" y="0" width="243.252" height="120.076" filterUnits="userSpaceOnUse" color-interpolation-filters="sRGB">
<feFlood flood-opacity="0" result="BackgroundImageFix"/>
<feColorMatrix in="SourceAlpha" type="matrix" values="0 0 0 0 0 0 0 0 0 0 0 0 0 0 0 0 0 0 127 0" result="hardAlpha"/>
<feOffset dy="3.12583"/>
<feGaussianBlur stdDeviation="1.56291"/>
<feComposite in2="hardAlpha" operator="out"/>
<feColorMatrix type="matrix" values="0 0 0 0 0 0 0 0 0 0 0 0 0 0 0 0 0 0 0.25 0"/>
<feBlend mode="normal" in2="BackgroundImageFix" result="effect1_dropShadow_280_417"/>
<feBlend mode="normal" in="SourceGraphic" in2="effect1_dropShadow_280_417" result="shape"/>
</filter>
<linearGradient id="paint0_linear_280_417" x1="122.5" y1="0" x2="122.5" y2="113.824" gradientUnits="userSpaceOnUse">
<stop stop-color="#7CF0E6"/>
<stop offset="1" stop-color="white"/>
</linearGradient>
</defs>
</svg>
