<svg width="12" height="12" viewBox="0 0 12 12" fill="none" xmlns="http://www.w3.org/2000/svg">
<g id="settings">
<path id="Vector" d="M9.71614 6.49C9.73614 6.33 9.75114 6.17 9.75114 6C9.75114 5.83 9.73614 5.67 9.71614 5.51L10.7711 4.685C10.8661 4.61 10.8911 4.475 10.8311 4.365L9.83114 2.635C9.78614 2.555 9.70114 2.51 9.61114 2.51C9.58114 2.51 9.55114 2.515 9.52614 2.525L8.28114 3.025C8.02114 2.825 7.74114 2.66 7.43614 2.535L7.24614 1.21C7.23114 1.09 7.12614 1 7.00114 1H5.00114C4.87614 1 4.77114 1.09 4.75614 1.21L4.56614 2.535C4.26114 2.66 3.98114 2.83 3.72114 3.025L2.47614 2.525C2.44614 2.515 2.41614 2.51 2.38614 2.51C2.30114 2.51 2.21614 2.555 2.17114 2.635L1.17114 4.365C1.10614 4.475 1.13614 4.61 1.23114 4.685L2.28614 5.51C2.26614 5.67 2.25114 5.835 2.25114 6C2.25114 6.165 2.26614 6.33 2.28614 6.49L1.23114 7.315C1.13614 7.39 1.11114 7.525 1.17114 7.635L2.17114 9.365C2.21614 9.445 2.30114 9.49 2.39114 9.49C2.42114 9.49 2.45114 9.485 2.47614 9.475L3.72114 8.975C3.98114 9.175 4.26114 9.34 4.56614 9.465L4.75614 10.79C4.77114 10.91 4.87614 11 5.00114 11H7.00114C7.12614 11 7.23114 10.91 7.24614 10.79L7.43614 9.465C7.74114 9.34 8.02114 9.17 8.28114 8.975L9.52614 9.475C9.55614 9.485 9.58614 9.49 9.61614 9.49C9.70114 9.49 9.78614 9.445 9.83114 9.365L10.8311 7.635C10.8911 7.525 10.8661 7.39 10.7711 7.315L9.71614 6.49ZM8.72614 5.635C8.74614 5.79 8.75114 5.895 8.75114 6C8.75114 6.105 8.74114 6.215 8.72614 6.365L8.65614 6.93L9.10114 7.28L9.64114 7.7L9.29114 8.305L8.65614 8.05L8.13614 7.84L7.68614 8.18C7.47114 8.34 7.26614 8.46 7.06114 8.545L6.53114 8.76L6.45114 9.325L6.35114 10H5.65114L5.47614 8.76L4.94614 8.545C4.73114 8.455 4.53114 8.34 4.33114 8.19L3.87614 7.84L3.34614 8.055L2.71114 8.31L2.36114 7.705L2.90114 7.285L3.34614 6.935L3.27614 6.37C3.26114 6.215 3.25114 6.1 3.25114 6C3.25114 5.9 3.26114 5.785 3.27614 5.635L3.34614 5.07L2.90114 4.72L2.36114 4.3L2.71114 3.695L3.34614 3.95L3.86614 4.16L4.31614 3.82C4.53114 3.66 4.73614 3.54 4.94114 3.455L5.47114 3.24L5.55114 2.675L5.65114 2H6.34614L6.52114 3.24L7.05114 3.455C7.26614 3.545 7.46614 3.66 7.66614 3.81L8.12114 4.16L8.65114 3.945L9.28614 3.69L9.63614 4.295L9.10114 4.72L8.65614 5.07L8.72614 5.635ZM6.00114 4C4.89614 4 4.00114 4.895 4.00114 6C4.00114 7.105 4.89614 8 6.00114 8C7.10614 8 8.00114 7.105 8.00114 6C8.00114 4.895 7.10614 4 6.00114 4ZM6.00114 7C5.45114 7 5.00114 6.55 5.00114 6C5.00114 5.45 5.45114 5 6.00114 5C6.55114 5 7.00114 5.45 7.00114 6C7.00114 6.55 6.55114 7 6.00114 7Z" fill="white"/>
</g>
</svg>
