<svg width="297" height="334" viewBox="0 0 297 334" fill="none" xmlns="http://www.w3.org/2000/svg">
<g clip-path="url(#clip0_392_337)">
<path d="M139.567 200.853L143.689 200.42C145.44 199.039 144.245 200.441 145.976 199.059C160.42 187.615 161.595 179.119 174.04 165.51L127.369 171.675" fill="#FFE5AA"/>
<path d="M114.532 161.922C113.337 163.571 110.205 163.551 108.35 163.922C92.7312 166.994 77.071 170.129 61.3284 172.418C61.3284 158.066 72.1257 140.827 87.7241 140.93C89.6816 140.93 108.309 158.581 114.511 161.901H114.532V161.922Z" fill="#CA7369"/>
<path d="M209.441 141.033C210.492 140.93 220.897 144.25 222.093 144.992C230.829 150.457 235.218 162.19 234.703 172.232C219.105 169.737 203.568 166.52 188.093 163.262C186.28 162.87 183.704 162.726 182.303 161.53C185.188 159.942 188.217 158.519 190.896 156.581C194.502 153.983 206.906 141.281 209.42 141.054L209.441 141.033Z" fill="#CA7369"/>
<path d="M210.471 136.703C207.092 127.651 212.635 94.9879 208.472 88.5749C207.318 86.781 192.4 82.9662 188.052 79.7082C182.283 75.3779 180.016 70.0372 176.163 64.3253C169.033 68.5319 164.562 74.4087 157.226 78.8215C137.157 90.8638 109.978 92.9259 87.2295 93.4826C86.7144 107.257 87.5592 121.052 87.7653 134.806L86.7144 134.909C79.3994 125.465 76.5765 127.073 72.1875 113.01C61.6581 79.337 78.9667 43.4781 109.051 26.3631C178.059 -12.8982 263.592 65.8718 211.234 136.827L210.451 136.703H210.471Z" fill="#CA7369"/>
<path d="M210.471 136.703C210.409 137.239 210.121 137.713 210.018 138.208C209.956 138.476 209.812 138.724 209.75 138.992C209.812 138.724 209.935 138.476 210.018 138.208C209.956 138.476 209.812 138.724 209.75 138.992L209.441 141.033C206.906 141.281 194.502 153.983 190.916 156.56C188.217 158.499 185.209 159.922 182.324 161.509C181.17 162.149 180.016 162.829 178.842 163.386C178.78 163.427 178.718 163.468 178.656 163.489C178.574 163.53 178.491 163.571 178.388 163.613C157.329 173.407 135.055 172.892 114.532 161.901C108.329 158.581 89.6815 140.93 87.7446 140.93L87.8682 138.683C87.8682 138.25 87.827 137.817 87.8476 137.383L87.6827 137.219C87.4973 136.394 87.25 135.548 86.7349 134.868L87.7858 134.765C87.5797 120.99 86.7143 107.195 87.25 93.4414C109.999 92.8846 137.177 90.8226 157.247 78.7802C164.583 74.3881 169.054 68.5112 176.183 64.2841C180.037 69.9959 182.324 75.3366 188.073 79.6669C192.421 82.9249 207.339 86.7397 208.493 88.5337C212.655 94.9673 207.112 127.609 210.492 136.662V136.703H210.471Z" fill="#FFE5AA"/>
<path d="M133.386 136.93L163.862 136.786H164.521C161.018 157.983 135.508 158.87 133.386 136.93Z" fill="#CA7369" stroke="#4A121A" stroke-width="7.11879" stroke-linecap="round" stroke-linejoin="round"/>
<path d="M132.809 137.425L134.107 136.765" stroke="#4A121A" stroke-width="7.11879" stroke-linecap="round" stroke-linejoin="round"/>
<path d="M110.328 114.928C115.129 107.834 120.528 107.814 127.493 112" stroke="#4A121A" stroke-width="7.11879" stroke-linecap="round" stroke-linejoin="round"/>
<path d="M187.413 113.835C182.612 106.742 177.214 106.721 170.249 110.907" stroke="#4A121A" stroke-width="7.11879" stroke-linecap="round" stroke-linejoin="round"/>
<path d="M20.6742 272.175V272.845C21.092 276.674 20.2147 281.843 21.1756 285.464C21.2383 285.673 21.2174 285.882 21.28 286.071C35.5894 334.747 125.038 329.724 164.144 328.971C198.298 328.301 259.609 327.234 272.602 285.924C272.665 285.736 272.665 285.548 272.727 285.359C273.5 282.66 273.166 275.837 273.291 272.531V271.819" fill="#FF7A64"/>
<path d="M20.6742 272.175V272.845C21.092 276.674 20.2147 281.843 21.1756 285.464C21.2383 285.673 21.2174 285.882 21.28 286.071C35.5894 334.747 125.038 329.724 164.144 328.971C198.298 328.301 259.609 327.234 272.602 285.924C272.665 285.736 272.665 285.548 272.727 285.359C273.5 282.66 273.166 275.837 273.291 272.531V271.819" stroke="#4A121A" stroke-width="7.82611" stroke-linecap="round" stroke-linejoin="round"/>
<path d="M129.636 249.662C129.388 251.229 113.687 269.89 111.256 272.324C109.689 273.911 108.206 275.87 106.557 277.314L106.084 277.809" fill="#96BB00"/>
<path d="M129.636 249.662C129.388 251.229 113.687 269.89 111.256 272.324C109.689 273.911 108.206 275.87 106.557 277.314L106.084 277.809" stroke="#4A121A" stroke-width="7.82611" stroke-linecap="round" stroke-linejoin="round"/>
<path d="M275.44 287.459C280.118 287.81 288.236 293.769 291.966 289.088C293.305 287.418 293.635 270.756 292.873 268.529C289.452 258.652 278.098 271.726 273.833 272.612L273.256 273.045" fill="#FF7A64"/>
<path d="M275.44 287.459C280.118 287.81 288.236 293.769 291.966 289.088C293.305 287.418 293.635 270.756 292.873 268.529C289.452 258.652 278.098 271.726 273.833 272.612L273.256 273.045" stroke="#4A121A" stroke-width="7.82611" stroke-linecap="round" stroke-linejoin="round"/>
<path d="M21.6627 287.459C17.6859 287.789 9.03155 292.779 5.77588 290.119C2.95292 287.83 3.32382 268.158 5.26074 266.076C8.49581 262.591 20.344 270.2 23.4554 272.86L24.053 273.334C28.7922 268.035 38.312 258.879 53.2098 253.27C62.915 249.621 71.6105 248.693 77.6685 248.569C126.05 246.651 174.432 244.754 222.814 242.836C230.108 245.208 237.876 248.115 244.553 251.93C257.019 259.044 266.642 266.571 273.236 273.025" fill="#FF7A64"/>
<path d="M21.6627 287.459C17.6859 287.789 9.03155 292.779 5.77588 290.119C2.95292 287.83 3.32382 268.158 5.26074 266.076C8.49581 262.591 20.344 270.2 23.4554 272.86L24.053 273.334C28.7922 268.035 38.312 258.879 53.2098 253.27C62.915 249.621 71.6105 248.693 77.6685 248.569C126.05 246.651 174.432 244.754 222.814 242.836C230.108 245.208 237.876 248.115 244.553 251.93C257.019 259.044 266.642 266.571 273.236 273.025" stroke="#4A121A" stroke-width="7.82611" stroke-linecap="round" stroke-linejoin="round"/>
<path d="M81.3364 267.169C78.5958 269.334 77.1328 271.602 76.3086 273.272C72.7439 280.592 74.8868 290.263 81.3158 298.326C96.3578 303.667 119.601 309.894 148.469 310.018C179.996 310.142 205.093 302.904 220.63 297.068C221.413 296.285 230.562 286.593 227.718 274.118C226.173 267.334 221.866 263.127 219.97 261.498" fill="#FFCF5F"/>
<path d="M81.3364 267.169C78.5958 269.334 77.1328 271.602 76.3086 273.272C72.7439 280.592 74.8868 290.263 81.3158 298.326C96.3578 303.667 119.601 309.894 148.469 310.018C179.996 310.142 205.093 302.904 220.63 297.068C221.413 296.285 230.562 286.593 227.718 274.118C226.173 267.334 221.866 263.127 219.97 261.498" stroke="#4A121A" stroke-width="7.82611" stroke-linecap="round" stroke-linejoin="round"/>
<path d="M105.713 277.644C118.076 278.551 126.772 275.932 131.222 274.221C136.085 272.344 140.886 270.509 142.391 266.715C144.389 261.684 139.897 254.92 131.078 249.827C122.753 248.919 113.749 248.548 104.188 249.064C103.096 249.126 102.024 249.188 100.953 249.27" fill="#FFDBAE"/>
<path d="M105.713 277.644C118.076 278.551 126.772 275.932 131.222 274.221C136.085 272.344 140.886 270.509 142.391 266.715C144.389 261.684 139.897 254.92 131.078 249.827C122.753 248.919 113.749 248.548 104.188 249.064C103.096 249.126 102.024 249.188 100.953 249.27" stroke="#4A121A" stroke-width="7.82611" stroke-linecap="round" stroke-linejoin="round"/>
<path d="M187.743 273.499C176.822 274.262 169.137 272.035 165.201 270.571C160.915 268.963 156.67 267.375 155.331 264.137C153.559 259.828 157.515 254.033 165.324 249.662C172.681 248.878 180.634 248.569 189.083 249.002C190.051 249.043 190.999 249.105 191.926 249.167" fill="#FFDBAE"/>
<path d="M187.743 273.499C176.822 274.262 169.137 272.035 165.201 270.571C160.915 268.963 156.67 267.375 155.331 264.137C153.559 259.828 157.515 254.033 165.324 249.662C172.681 248.878 180.634 248.569 189.083 249.002C190.051 249.043 190.999 249.105 191.926 249.167" stroke="#4A121A" stroke-width="7.82611" stroke-linecap="round" stroke-linejoin="round"/>
<path d="M170.229 240.176L167.406 249.744" stroke="#4A121A" stroke-width="7.82611" stroke-linecap="round" stroke-linejoin="round"/>
<path d="M165.189 199.751L180.362 182.303L186.051 209.613L165.189 199.751Z" fill="#C2A800"/>
<path d="M124.983 202.027L115.88 183.821L109.432 211.889L124.983 202.027Z" fill="#C2A800"/>
<path d="M170.228 240.176L169.672 239.64C168.518 238.568 167.694 237.413 166.066 236.98C164.438 236.547 132.706 236.465 131.037 236.98C129.368 237.496 128.605 238.568 127.431 239.702L126.874 240.238" stroke="#4A121A" stroke-width="7.82611" stroke-linecap="round" stroke-linejoin="round"/>
<path d="M129.636 249.662L129.43 248.981C129.45 248.466 127.431 241.64 127.06 240.919L126.854 240.238" stroke="#4A121A" stroke-width="7.82611" stroke-linecap="round" stroke-linejoin="round"/>
<path d="M190.649 207.472C190.339 211.06 191.225 215.329 189.969 218.772C187.64 225.144 176.802 236.197 170.805 239.805L170.228 240.156" stroke="#4A121A" stroke-width="7.82611" stroke-linecap="round" stroke-linejoin="round"/>
<path d="M104.394 221.288L102.993 210.504C103.446 206.977 104.538 203.513 106.825 203.286C110.74 203.41 110.637 206.565 109.999 209.576L111.4 220.36C111.915 224.979 105.074 225.886 104.394 221.267V221.288Z" fill="#4A121A"/>
<path d="M107.897 220.834L108.35 221.309C112.389 227.165 123.681 234.691 126.854 240.259" stroke="#4A121A" stroke-width="7.82611" stroke-linecap="round" stroke-linejoin="round"/>
<path d="M178.656 163.51L133.695 214.545" stroke="#4A121A" stroke-width="7.82611" stroke-linecap="round" stroke-linejoin="round"/>
<path d="M108.371 163.922C92.7518 166.994 77.0916 170.129 61.349 172.418C61.349 158.066 72.1463 140.827 87.7447 140.93C89.7022 140.93 108.33 158.581 114.532 161.901C135.055 172.892 157.33 173.387 178.388 163.613L178.842 163.386C180.016 162.808 181.17 162.149 182.324 161.509C185.209 159.922 188.238 158.499 190.916 156.56C194.522 153.962 206.927 141.26 209.441 141.033C210.492 140.93 220.898 144.25 222.093 144.992C230.829 150.457 235.218 162.19 234.703 172.232C219.105 169.737 203.568 166.52 188.094 163.262" stroke="#4A121A" stroke-width="7.82611" stroke-linecap="round" stroke-linejoin="round"/>
<path d="M139.567 197.719L127.369 171.655" stroke="#4A121A" stroke-width="7.82611" stroke-linecap="round" stroke-linejoin="round"/>
<path d="M178.842 168.149C205.114 181.944 220.259 213.061 220.012 242.073C219.929 250.775 214.366 278.035 208.493 283.954C201.364 291.15 194.461 278.386 189.495 275.107L189.021 274.633" fill="#C2A800"/>
<path d="M178.842 168.149C205.114 181.944 220.259 213.061 220.012 242.073C219.929 250.775 214.366 278.035 208.493 283.954C201.364 291.15 194.461 278.386 189.495 275.107M189.495 275.107L189.021 274.633M189.495 275.107L185.672 249.061" stroke="#4A121A" stroke-width="7.82611" stroke-linecap="round" stroke-linejoin="round"/>
<path d="M119.294 167.89C91.9083 182.98 77.3001 211.793 77.5738 242.201C77.6159 246.755 78.1421 252.675 78.9841 257.146C79.826 261.617 81.2363 266.585 82.794 270.704C89.3824 288.154 91.319 291.3 106.938 278.094" fill="#C2A800"/>
<path d="M119.294 167.89C91.9083 182.98 77.3001 211.793 77.5738 242.201C77.6159 246.755 78.1421 252.675 78.9841 257.146C79.826 261.617 81.2363 266.585 82.794 270.704C89.3824 288.154 91.319 291.3 106.938 278.094M107.914 278.268L113.604 214.165" stroke="#4A121A" stroke-width="7.82611" stroke-linecap="round" stroke-linejoin="round"/>
<path d="M128.008 200.131L115.809 174.067" stroke="#4A121A" stroke-width="7.82611" stroke-linecap="round" stroke-linejoin="round"/>
<path d="M182.88 175.428L137.919 226.464" stroke="#4A121A" stroke-width="7.82611" stroke-linecap="round" stroke-linejoin="round"/>
<path d="M87.8683 138.703L87.6828 137.239C87.4974 136.414 87.2501 135.569 86.735 134.888C79.42 125.444 76.597 127.053 72.2081 112.99C61.6786 79.3164 78.9873 43.4575 109.071 26.3425C178.079 -12.9188 263.613 65.8513 211.254 136.806C210.966 137.198 210.718 137.61 210.43 138.002C210.203 138.332 210.038 138.724 209.75 138.992C209.812 138.724 209.935 138.476 210.018 138.208C210.141 137.693 210.43 137.219 210.471 136.703C207.092 127.651 212.635 94.9879 208.472 88.575C207.318 86.781 192.4 82.9662 188.052 79.7082C182.283 75.3779 180.016 70.0372 176.163 64.3253C169.033 68.5319 164.562 74.4087 157.226 78.8215C137.157 90.8638 109.978 92.9259 87.2295 93.4826C86.7143 107.257 87.5592 121.052 87.7652 134.806C87.7652 135.672 87.827 136.538 87.827 137.404C87.827 137.837 87.8477 138.27 87.8477 138.703H87.8683Z" stroke="#4A121A" stroke-width="7.82611" stroke-linecap="round" stroke-linejoin="round"/>
<path d="M147.047 248.383L147.913 248.445L148.119 249.414C148.242 249.456 148.407 249.414 148.51 249.414C148.634 249.476 148.964 249.002 148.964 249.703C148.078 254.054 158.463 267.808 157.391 270.303C156.443 272.509 146.141 272.324 143.833 271.973C141.855 271.684 139.959 272.179 139.568 269.56C139.403 268.509 145.811 252.528 146.697 249.559L146.532 249.208L146.821 249.167C146.903 248.899 146.965 248.631 147.047 248.363V248.383Z" fill="#4A121A"/>
<path d="M227.821 0.278633C232.231 -0.31936 233.858 6.73283 229.943 7.2071C226.667 7.59889 223.617 0.856005 227.821 0.278633Z" fill="#4A121A"/>
<path d="M228.542 13.764C234.765 12.6711 232.025 21.4142 227.471 20.3213C224.874 19.7027 225.41 14.3001 228.542 13.764Z" fill="#4A121A"/>
<path d="M238.474 13.764C241.977 12.5474 245.748 18.0531 242.389 19.9708C239.669 21.5173 236.393 18.0325 237.238 15.0425C237.238 14.96 238.392 13.7847 238.474 13.764Z" fill="#4A121A"/>
<path d="M240.246 0.278247C244.594 -0.299125 244.347 5.14467 241.318 6.485C235.878 8.85635 236.001 0.834999 240.246 0.278247Z" fill="#4A121A"/>
<path d="M26.0929 178.976C30.5025 178.378 32.1303 185.43 28.2153 185.904C24.939 186.296 21.8894 179.553 26.0929 178.976Z" fill="#4A121A"/>
<path d="M26.8141 192.461C33.0369 191.368 30.2964 200.111 25.7426 199.018C23.1463 198.399 23.682 192.997 26.8141 192.461Z" fill="#4A121A"/>
<path d="M36.7459 192.461C40.2489 191.244 44.0197 196.75 40.661 198.668C37.9411 200.214 34.6648 196.729 35.5096 193.739C35.5302 193.657 36.6635 192.481 36.7459 192.461Z" fill="#4A121A"/>
<path d="M38.5386 178.975C42.8864 178.398 42.6391 183.841 39.6101 185.182C34.1702 187.553 34.2939 179.532 38.5386 178.975Z" fill="#4A121A"/>
<path d="M48.6354 15.8879C50.4075 15.7023 59.9684 24.7959 60.1745 25.9094C60.2363 26.2394 60.2569 27.456 60.1745 27.724C59.989 28.4251 50.7372 37.56 50.0572 37.7456C47.976 38.3229 38.5181 29.3737 38.1678 27.724C37.9824 26.858 38.1678 25.6414 38.5181 24.7959C38.8478 24.0123 47.7494 15.9498 48.6354 15.8673V15.8879Z" fill="#4A121A"/>
<path d="M48.6354 23.1876C49.8306 22.9608 51.7881 25.992 52.7153 26.6518C49.5421 31.2914 48.7797 31.312 45.2561 27.023C45.2149 26.6106 48.3882 23.2495 48.6354 23.1876Z" fill="#F9B452"/>
<path d="M273.38 176.212C274.719 175.882 275.791 176.315 276.924 176.933C277.46 177.222 285.496 185.243 285.619 185.862C285.681 186.171 285.702 187.78 285.619 188.048C285.434 188.728 276.182 197.554 275.502 197.719C275.193 197.781 273.648 197.801 273.38 197.719C272.638 197.492 263.736 188.357 263.613 187.326C263.365 185.182 271.834 176.583 273.38 176.212Z" fill="#4A121A"/>
<path d="M274.451 183.14C275.296 183.14 277.686 186.357 278.531 186.976C278.037 187.532 274.719 190.811 274.451 190.811C274.163 190.811 270.474 187.058 271.072 186.254C271.731 185.718 273.792 183.161 274.451 183.161V183.14Z" fill="#F9B452"/>
<path d="M199.736 247.538C197.943 230.588 188.011 215.473 173.443 207.287C173.361 207.246 173.299 207.204 173.216 207.163C165.716 202.998 157.309 200.833 148.799 200.853C140.289 200.874 131.717 203.142 124.175 207.411C118.117 210.854 112.78 215.535 108.536 221.164C108.474 221.226 108.433 221.309 108.371 221.371C102.766 228.876 99.2014 237.867 98.1505 247.27" fill="#F2F2F2"/>
<path d="M199.736 247.538C197.943 230.588 188.011 215.473 173.443 207.287C173.361 207.246 173.299 207.204 173.216 207.163C165.716 202.998 157.309 200.833 148.799 200.853C140.289 200.874 131.717 203.142 124.175 207.411C118.117 210.854 112.78 215.535 108.536 221.164C108.474 221.226 108.433 221.309 108.371 221.371C102.766 228.876 99.2014 237.867 98.1505 247.27" stroke="#B91832" stroke-width="11.2486" stroke-linecap="round" stroke-linejoin="round"/>
<path d="M145.976 245.661C146.512 245.744 147.027 245.888 147.563 245.95C147.892 245.991 148.407 245.95 148.634 246.074C148.716 246.115 148.84 246.074 148.902 246.074C155.001 246.795 160.977 247.723 167.117 247.93C170.847 248.074 197.16 248.239 198.788 247.6" fill="#F2F2F2"/>
<path d="M145.976 245.661C146.512 245.744 147.027 245.888 147.563 245.95C147.892 245.991 148.407 245.95 148.634 246.074C148.716 246.115 148.84 246.074 148.902 246.074C155.001 246.795 160.977 247.723 167.117 247.93C170.847 248.074 197.16 248.239 198.788 247.6" stroke="#B91832" stroke-width="11.2486" stroke-linecap="round" stroke-linejoin="round"/>
<path d="M124.608 207.926C129.924 217.164 135.158 226.443 140.68 235.557C141.381 236.692 146.944 244.919 146.45 245.393C141.36 248.775 136.291 247.95 130.625 247.992C126.339 248.033 101.303 248.198 99.1601 247.394" fill="#F2F2F2"/>
<path d="M124.608 207.926C129.924 217.164 135.158 226.443 140.68 235.557C141.381 236.692 146.944 244.919 146.45 245.393C141.36 248.775 136.291 247.95 130.625 247.992C126.339 248.033 101.303 248.198 99.1601 247.394" stroke="#B91832" stroke-width="11.2486" stroke-linecap="round" stroke-linejoin="round"/>
<path d="M148.861 201.513C148.902 212.38 148.799 223.268 148.861 234.135C148.861 238.197 148.655 242.238 149.211 246.28C148.613 249.229 155.64 258.508 154.898 260.219C154.259 261.704 147.295 261.58 145.729 261.354C144.389 261.168 143.112 261.498 142.844 259.725C142.741 259.003 147.068 248.198 147.666 246.198C147.686 246.115 147.727 246.012 147.748 245.929C147.81 245.744 147.851 245.558 147.892 245.393C148.284 244.032 148.675 242.63 148.84 241.228" fill="#F2F2F2"/>
<path d="M148.861 201.513C148.902 212.38 148.799 223.268 148.861 234.135C148.861 238.197 148.655 242.238 149.211 246.28C148.613 249.229 155.64 258.508 154.898 260.219C154.259 261.704 147.295 261.58 145.729 261.354C144.389 261.168 143.112 261.498 142.844 259.725C142.741 259.003 147.068 248.198 147.666 246.198C147.686 246.115 147.727 246.012 147.748 245.929C147.81 245.744 147.851 245.558 147.892 245.393C148.284 244.032 148.675 242.63 148.84 241.228" stroke="#B91832" stroke-width="11.2486" stroke-linecap="round" stroke-linejoin="round"/>
<path d="M159.246 232.217C159.988 233.825 160.688 235.475 161.43 237.083C161.863 238.011 162.213 238.96 162.687 239.867L162.811 240.094C163.944 242.259 165.324 244.321 166.54 246.466" fill="#F2F2F2"/>
<path d="M159.246 232.217C159.988 233.825 160.688 235.475 161.43 237.083C161.863 238.011 162.213 238.96 162.687 239.867L162.811 240.094C163.944 242.259 165.324 244.321 166.54 246.466" stroke="#B91832" stroke-width="11.2486" stroke-linecap="round" stroke-linejoin="round"/>
<path d="M188.959 221.989L154.733 245.579C153.312 246.486 151.581 246.218 149.973 246.177" fill="#F2F2F2"/>
<path d="M188.959 221.989L154.733 245.579C153.312 246.486 151.581 246.218 149.973 246.177" stroke="#B91832" stroke-width="11.2486" stroke-linecap="round" stroke-linejoin="round"/>
<path d="M108.762 221.742C117.396 227.722 125.968 233.784 134.622 239.723C137.383 241.62 140.145 243.476 142.906 245.373" fill="#F2F2F2"/>
<path d="M108.762 221.742C117.396 227.722 125.968 233.784 134.622 239.723C137.383 241.62 140.145 243.476 142.906 245.373" stroke="#B91832" stroke-width="11.2486" stroke-linecap="round" stroke-linejoin="round"/>
<path d="M156.052 234.939C153.703 234.588 151.292 234.444 148.923 234.114H148.675C145.461 233.248 143.38 234.609 140.68 235.908C138.867 236.795 136.23 238.114 134.89 239.681C134.787 239.805 134.664 239.929 134.56 240.053C133.036 242.012 132.397 244.342 131.305 246.527" fill="#F2F2F2"/>
<path d="M156.052 234.939C153.703 234.588 151.292 234.444 148.923 234.114H148.675C145.461 233.248 143.38 234.609 140.68 235.908C138.867 236.795 136.23 238.114 134.89 239.681C134.787 239.805 134.664 239.929 134.56 240.053C133.036 242.012 132.397 244.342 131.305 246.527" stroke="#B91832" stroke-width="11.2486" stroke-linecap="round" stroke-linejoin="round"/>
<path d="M173.113 207.926C168.477 215.927 164.026 224.031 159.37 232.011C159.287 232.155 159.205 232.299 159.122 232.444C158.607 233.31 158.092 234.155 157.577 235.021C157.536 235.083 157.494 235.166 157.453 235.228C155.681 238.238 153.847 241.228 152.075 244.239" fill="#F2F2F2"/>
<path d="M173.113 207.926C168.477 215.927 164.026 224.031 159.37 232.011C159.287 232.155 159.205 232.299 159.122 232.444C158.607 233.31 158.092 234.155 157.577 235.021C157.536 235.083 157.494 235.166 157.453 235.228C155.681 238.238 153.847 241.228 152.075 244.239" stroke="#B91832" stroke-width="11.2486" stroke-linecap="round" stroke-linejoin="round"/>
</g>
<defs>
<clipPath id="clip0_392_337">
<rect width="296.616" height="333.123" fill="white" transform="translate(0.191772 0.237061)"/>
</clipPath>
</defs>
</svg>
