<svg width="341" height="87" viewBox="0 0 341 87" fill="none" xmlns="http://www.w3.org/2000/svg">
<g clip-path="url(#clip0_383_305)">
<path d="M60.6742 57.3371H69.0292V82.4422H73.2268C74.3916 82.4422 75.3808 82.0305 76.1992 81.2071C77.0176 80.3836 77.4243 79.4095 77.4243 78.2848V57.3371H85.7793V82.4422H89.9769C91.1167 82.4422 92.0908 82.0305 92.9092 81.2071C93.7276 80.3836 94.1343 79.4095 94.1343 78.2848V57.3371H102.529V72.3399C102.529 76.2362 101.129 79.5953 98.3219 82.4121C95.5151 85.2289 92.151 86.6398 88.2296 86.6398H77.4243V85.3042C75.8176 86.1929 73.8343 86.6398 71.4794 86.6398H60.6742V57.3371Z" fill="#743E3E" stroke="#743E3E" stroke-width="0.376577" stroke-miterlimit="10"/>
<path d="M127.635 69.8897V65.7323C127.635 64.5824 127.218 63.5933 126.389 62.7698C125.561 61.9464 124.577 61.5347 123.437 61.5347H119.239C116.769 61.5347 115.383 62.9355 115.082 65.7323H110.884C111.527 60.1338 114.309 57.3371 119.239 57.3371H127.635C129.924 57.3371 131.887 58.1656 133.529 59.8175C135.171 61.4694 135.99 63.4427 135.99 65.7323V86.6398H127.635V82.4422C127.308 85.2389 125.907 86.6398 123.437 86.6398H119.239C116.95 86.6398 114.987 85.8214 113.345 84.1795C111.703 82.5376 110.884 80.5744 110.884 78.2848V78.2447C110.884 75.9551 111.708 73.9918 113.355 72.35C115.002 70.7081 116.965 69.8897 119.239 69.8897H127.635ZM127.635 74.0872H123.437C122.287 74.0872 121.298 74.4939 120.475 75.3124C119.651 76.1308 119.239 77.1049 119.239 78.2447V78.2848C119.239 79.4095 119.646 80.3836 120.465 81.2071C121.283 82.0305 122.272 82.4422 123.437 82.4422C124.602 82.4422 125.591 82.0305 126.409 81.2071C127.228 80.3836 127.635 79.4095 127.635 78.2848V74.0872Z" fill="#743E3E" stroke="#743E3E" stroke-width="0.376577" stroke-miterlimit="10"/>
<path d="M144.345 74.0872V69.8896H165.252V74.0872H144.345Z" fill="#743E3E" stroke="#743E3E" stroke-width="0.376577" stroke-miterlimit="10"/>
<path d="M173.647 86.6398V48.9821H182.002V86.6398H173.647Z" fill="#743E3E" stroke="#743E3E" stroke-width="0.376577" stroke-miterlimit="10"/>
<path d="M190.392 53.1797V48.9821H198.747V53.1797H190.392ZM190.392 86.6398V57.3371H198.747V86.6398H190.392Z" fill="#743E3E" stroke="#743E3E" stroke-width="0.376577" stroke-miterlimit="10"/>
<path d="M223.893 57.3371H232.248V72.3399C232.248 76.2362 230.847 79.5953 228.04 82.4121C225.233 85.2289 221.869 86.6398 217.948 86.6398H207.143V57.3371H215.498V82.4422H219.695C220.86 82.4422 221.849 82.0305 222.668 81.2071C223.486 80.3836 223.893 79.4095 223.893 78.2848V57.3371Z" fill="#743E3E" stroke="#743E3E" stroke-width="0.376577" stroke-miterlimit="10"/>
<path d="M265.708 74.0872H248.958V78.2848C248.958 79.4095 249.364 80.3836 250.183 81.2071C251.001 82.0305 251.99 82.4422 253.155 82.4422H257.353C260.124 82.4422 261.51 81.0564 261.51 78.2848H265.708C265.055 83.8531 262.268 86.6398 257.353 86.6398H248.958C246.668 86.6398 244.705 85.8214 243.063 84.1795C241.421 82.5376 240.603 80.5744 240.603 78.2848V65.7323C240.603 63.4176 241.426 61.4393 243.073 59.7974C244.72 58.1555 246.683 57.3371 248.958 57.3371H257.353C259.642 57.3371 261.606 58.1656 263.248 59.8175C264.889 61.4694 265.708 63.4427 265.708 65.7323V74.0872ZM248.958 69.8897H257.353V65.7323C257.353 64.5824 256.936 63.5933 256.108 62.7698C255.279 61.9464 254.295 61.5347 253.155 61.5347C252.016 61.5347 251.016 61.9464 250.193 62.7698C249.369 63.5933 248.958 64.5824 248.958 65.7323V69.8897Z" fill="#743E3E" stroke="#743E3E" stroke-width="0.376577" stroke-miterlimit="10"/>
<path d="M278.22 74.0873V48.9821H286.595V74.0873H278.22ZM278.22 86.6398V78.2849H286.595V86.6398H278.22Z" fill="#743E3E" stroke="#743E3E" stroke-width="0.376577" stroke-miterlimit="10"/>
<path d="M58.5855 55.2585H66.9405V80.3636H71.1381C72.303 80.3636 73.2921 79.9519 74.1105 79.1284C74.929 78.305 75.3357 77.3309 75.3357 76.2062V55.2585H83.6907V80.3636H87.8882C89.028 80.3636 90.0021 79.9519 90.8205 79.1284C91.6389 78.305 92.0457 77.3309 92.0457 76.2062V55.2585H100.441V70.2613C100.441 74.1576 99.0399 77.5167 96.2332 80.3335C93.4264 83.1503 90.0623 84.5612 86.1409 84.5612H75.3357V83.2256C73.7289 84.1143 71.7456 84.5612 69.3908 84.5612H58.5855V55.2585Z" fill="white" stroke="black" stroke-width="0.376577" stroke-miterlimit="10"/>
<path d="M125.546 67.811V63.6536C125.546 62.5038 125.129 61.5147 124.301 60.6912C123.472 59.8678 122.488 59.456 121.348 59.456H117.151C114.68 59.456 113.295 60.8569 112.993 63.6536H108.796C109.438 58.0552 112.22 55.2585 117.151 55.2585H125.546C127.835 55.2585 129.799 56.0869 131.441 57.7388C133.082 59.3908 133.901 61.364 133.901 63.6536V84.5612H125.546V80.3636C125.22 83.1603 123.819 84.5612 121.348 84.5612H117.151C114.861 84.5612 112.898 83.7427 111.256 82.1009C109.614 80.459 108.796 78.4958 108.796 76.2062V76.166C108.796 73.8764 109.619 71.9132 111.266 70.2713C112.913 68.6295 114.876 67.811 117.151 67.811H125.546ZM125.546 72.0086H121.348C120.198 72.0086 119.209 72.4153 118.386 73.2337C117.562 74.0522 117.151 75.0262 117.151 76.166V76.2062C117.151 77.3309 117.557 78.305 118.376 79.1284C119.194 79.9519 120.183 80.3636 121.348 80.3636C122.513 80.3636 123.502 79.9519 124.321 79.1284C125.139 78.305 125.546 77.3309 125.546 76.2062V72.0086Z" fill="white" stroke="black" stroke-width="0.376577" stroke-miterlimit="10"/>
<path d="M142.256 72.0086V67.811H163.163V72.0086H142.256Z" fill="white" stroke="black" stroke-width="0.376577" stroke-miterlimit="10"/>
<path d="M171.559 84.5611V46.9034H179.914V84.5611H171.559Z" fill="white" stroke="black" stroke-width="0.376577" stroke-miterlimit="10"/>
<path d="M188.304 51.101V46.9034H196.659V51.101H188.304ZM188.304 84.5611V55.2584H196.659V84.5611H188.304Z" fill="white" stroke="black" stroke-width="0.376577" stroke-miterlimit="10"/>
<path d="M221.804 55.2585H230.159V70.2613C230.159 74.1576 228.758 77.5167 225.951 80.3335C223.145 83.1503 219.78 84.5612 215.859 84.5612H205.054V55.2585H213.409V80.3636H217.606C218.771 80.3636 219.76 79.9519 220.579 79.1284C221.397 78.305 221.804 77.3309 221.804 76.2062V55.2585Z" fill="white" stroke="black" stroke-width="0.376577" stroke-miterlimit="10"/>
<path d="M263.619 72.0086H246.869V76.2062C246.869 77.3309 247.276 78.305 248.094 79.1284C248.913 79.9519 249.902 80.3636 251.067 80.3636H255.264C258.036 80.3636 259.422 78.9778 259.422 76.2062H263.619C262.966 81.7745 260.18 84.5612 255.264 84.5612H246.869C244.579 84.5612 242.616 83.7427 240.974 82.1009C239.332 80.459 238.514 78.4958 238.514 76.2062V63.6536C238.514 61.3389 239.337 59.3606 240.984 57.7188C242.631 56.0769 244.594 55.2585 246.869 55.2585H255.264C257.554 55.2585 259.517 56.0869 261.159 57.7388C262.801 59.3908 263.619 61.364 263.619 63.6536V72.0086ZM246.869 67.811H255.264V63.6536C255.264 62.5038 254.847 61.5147 254.019 60.6912C253.19 59.8678 252.206 59.456 251.067 59.456C249.927 59.456 248.928 59.8678 248.104 60.6912C247.281 61.5147 246.869 62.5038 246.869 63.6536V67.811Z" fill="white" stroke="black" stroke-width="0.376577" stroke-miterlimit="10"/>
<path d="M276.132 72.0085V46.9034H284.507V72.0085H276.132ZM276.132 84.5611V76.2061H284.507V84.5611H276.132Z" fill="white" stroke="black" stroke-width="0.376577" stroke-miterlimit="10"/>
<path d="M13.321 26.2225C12.0152 26.2819 10.4126 26.2819 8.83961 26.2819C7.26666 26.2819 5.75307 26.2819 4.53625 26.2225C1.95424 26.1335 0.67807 24.8277 0.589035 22.6315C0.529678 20.7024 0.5 17.4674 0.5 14.2325C0.5 11.3537 0.529678 8.44522 0.589035 6.45677C0.648392 4.55736 2.07295 3.31087 4.29883 3.22183C5.4266 3.19215 7.3557 3.16248 9.25511 3.16248C10.8281 3.16248 12.3713 3.19215 13.3804 3.22183C15.1908 3.28119 16.9418 4.55736 17.0012 6.6942C17.0605 8.50458 17.0902 11.4724 17.0902 14.4402C17.0902 17.7049 17.0605 20.9695 17.0012 22.5424C16.9418 24.6199 15.4579 26.1335 13.321 26.2225ZM14.1817 12.5705C14.1817 10.7008 14.152 8.97943 14.1224 7.7923C14.063 5.74449 13.6178 5.71481 8.86929 5.71481C3.85365 5.71481 3.43816 5.74449 3.34912 7.7923C3.31944 9.00911 3.28976 10.7008 3.28976 12.5705H14.1817ZM3.28976 15.1822C3.28976 17.6752 3.28976 20.0494 3.34912 21.474C3.40848 23.4031 3.73494 23.5218 8.78026 23.5218C9.93771 23.5218 11.1248 23.5218 11.8965 23.4921C13.5585 23.4328 14.063 22.6611 14.1224 21.385C14.1817 19.9011 14.1817 17.5565 14.1817 15.1822H3.28976Z" fill="white"/>
<path d="M47.5105 11.1459V9.75104C47.5105 8.38583 47.4214 7.97034 45.9672 7.94066C43.5929 7.91098 40.4767 7.8813 37.4792 7.8813C35.0159 7.8813 32.6416 7.91098 30.8313 7.94066C29.2286 7.97034 29.1989 8.59358 29.1693 9.33554V11.0866C29.1693 11.8879 28.4273 12.3034 27.715 12.3034C27.0027 12.3034 26.3498 11.9176 26.3498 11.0569C26.3498 10.6711 26.3201 10.1962 26.3201 9.75104C26.3201 9.27618 26.3498 8.83101 26.3498 8.44519C26.4092 7.02063 27.2402 5.71478 29.4957 5.6851C30.4454 5.6851 31.4545 5.65543 32.4636 5.65543C31.8997 4.76507 31.1874 4.11215 30.4751 3.45923C30.2377 3.25148 30.119 3.01405 30.119 2.77663C30.119 2.18306 30.8609 1.58949 31.6029 1.58949C32.7307 1.58949 35.1346 4.11215 35.1346 5.0025C35.1346 5.21025 35.0753 5.418 34.9565 5.62575H36.9747V2.21274C36.9747 1.174 37.6869 0.669464 38.4289 0.669464C39.1709 0.669464 39.8831 1.174 39.8831 2.21274V5.59607C40.5064 5.59607 41.1593 5.62575 41.7826 5.62575C42.4652 4.67604 43.0884 3.28116 43.4742 2.30177C43.7116 1.64885 44.2162 1.38174 44.7504 1.38174C45.522 1.38174 46.3233 1.97531 46.3233 2.77663C46.3233 3.57794 44.8097 5.418 44.6317 5.62575C45.522 5.62575 46.3827 5.65542 47.2137 5.6851C49.0241 5.71478 50.3002 6.72385 50.3893 8.38583C50.419 8.77165 50.4486 9.27618 50.4486 9.78071C50.4486 10.2556 50.419 10.7601 50.3893 11.1459C50.3299 11.9769 49.6176 12.3924 48.9054 12.3924C48.1931 12.3924 47.5105 11.9769 47.5105 11.1756V11.1459ZM37.034 19.9604C35.6095 19.9604 34.1849 19.9901 32.9384 19.9901C32.2855 19.9901 31.7216 20.4056 31.6919 21.1178C31.6622 21.563 31.6622 22.0675 31.6622 22.6314C31.6622 23.3734 31.6622 24.1747 31.6919 24.9167V24.9463C31.6919 25.8367 31.0093 26.3115 30.297 26.3115C29.5848 26.3115 28.8725 25.8367 28.8428 24.9167C28.8428 24.3231 28.8131 23.5811 28.8131 22.8392C28.8131 22.0972 28.8428 21.2662 28.8428 20.6133C28.9022 18.5952 30.0893 17.7939 32.1668 17.7642C33.6804 17.7345 35.3424 17.7048 37.034 17.7048V16.0725C32.3448 16.0725 31.0687 15.8945 31.0687 12.8673C31.0687 10.9085 31.3358 9.57297 34.0365 9.54329C35.6391 9.51361 37.3902 9.51361 39.1115 9.51361C40.358 9.51361 41.6045 9.51361 42.8213 9.54329C45.522 9.57297 45.6111 11.2053 45.6111 12.7485C45.6111 15.8351 44.5723 16.0725 39.8535 16.0725V17.7048C41.6045 17.7048 43.3555 17.7345 45.0175 17.7642C46.8872 17.7939 48.0744 18.7436 48.104 20.6727C48.104 21.3256 48.1337 21.9488 48.1337 22.6611C48.1337 25.0947 46.4717 26.1632 44.0381 26.1632C41.1593 26.1632 40.8625 25.4212 40.8625 24.7089C40.8625 24.056 41.278 23.4031 41.9903 23.4031C42.0793 23.4031 42.1981 23.4031 42.2871 23.4328C42.7916 23.5515 43.2665 23.6108 43.682 23.6108C45.2549 23.6108 45.344 22.8095 45.344 21.8598C45.344 20.554 45.1956 19.9901 44.1271 19.9901C42.8213 19.9901 41.3671 19.9604 39.8535 19.9604L39.8831 26.1335C39.8831 27.0535 39.1709 27.5284 38.4586 27.5284C37.7463 27.5284 37.0043 27.0535 37.0043 26.1335L37.034 19.9604ZM41.8419 11.6208C40.7438 11.5911 39.5864 11.5911 38.3695 11.5911C37.1527 11.5911 35.9953 11.5911 34.8081 11.6208C34.3927 11.6208 33.8584 11.7395 33.8584 12.7189C33.8584 13.817 34.1255 13.8466 38.0431 13.8466C42.8213 13.8466 42.8213 13.817 42.8213 12.7485C42.8213 12.244 42.7916 11.6208 41.8419 11.6208Z" fill="white"/>
<path d="M71.1641 18.061C71.1641 18.5655 71.1641 19.0997 71.1048 19.6933C71.0157 20.8804 70.2144 21.5037 69.5022 21.5037C68.8492 21.5037 68.2853 21.0288 68.2853 20.1088V19.8417C68.3744 19.1294 68.4041 18.4468 68.4041 17.8532C67.7808 18.1797 65.0207 19.6339 65.0207 21.5037C65.0207 22.0082 65.2581 23.7592 68.2853 23.7592C69.6505 23.7592 71.1641 23.4031 72.0248 23.136C72.2919 23.0469 72.559 23.0173 72.7668 23.0173C73.7462 23.0173 74.31 23.6999 74.31 24.4121C74.31 25.0354 74.0726 26.549 68.9976 26.549C63.9226 26.549 62.3497 23.9967 62.3497 21.8301C62.3497 18.2094 66.564 15.9538 68.1073 15.1525C67.7511 13.9951 67.1576 13.4015 66.3562 13.4015C65.8814 13.4015 65.3769 13.5796 64.813 13.9357C63.5665 15.3306 62.8245 15.7461 62.1716 15.7461C61.4593 15.7461 60.8954 15.2712 60.8954 14.6183C60.8954 14.2622 61.0735 13.817 61.578 13.4015C63.1807 11.9769 63.982 11.235 65.3769 8.89038C64.8427 8.97941 64.3678 9.00909 63.9226 9.00909C60.9251 9.00909 60.8954 7.34711 60.8954 7.10968C60.8954 6.42708 61.4 5.80383 62.1122 5.80383C62.4387 5.80383 62.7948 5.92255 63.1807 6.18965C63.4478 6.36772 63.8336 6.42708 64.2788 6.42708C64.5162 6.42708 65.2878 6.3974 66.6233 6.10062C66.8905 5.32898 67.0092 4.76509 67.1576 3.75603C67.2763 3.01407 67.8105 2.71729 68.4041 2.71729C69.1757 2.71729 70.0067 3.2515 70.0067 4.02313C70.0067 4.37927 69.888 4.85413 69.8286 5.12123C70.719 4.67606 70.8377 4.64638 71.0454 4.64638C71.7577 4.64638 72.3216 5.23994 72.3216 5.95222C72.3216 6.93161 71.55 7.52518 68.4634 8.26713C68.0182 9.18716 67.4247 10.1962 66.7717 11.235C68.404 11.235 69.7396 12.155 70.5112 14.0247C74.2507 12.4221 76.8624 11.6208 77.3669 11.6208C78.4353 11.6208 79.0289 12.4221 79.0289 13.1641C79.0289 13.6389 78.7618 14.1138 78.2276 14.3215C77.3076 14.7073 76.3282 14.826 74.7849 15.3009C73.5384 15.6867 72.2622 16.1616 71.1048 16.6364C71.1641 17.0816 71.1641 17.5565 71.1641 18.061Z" fill="white"/>
<path d="M90.7519 6.15999C89.8022 7.61423 88.7338 8.97943 87.4279 10.1369C87.0124 10.5227 86.5376 10.6711 86.1517 10.6711C85.3504 10.6711 84.7272 10.1072 84.7272 9.36525C84.7272 8.94975 84.9646 8.4749 85.4988 8.02972C87.5763 6.33806 88.8821 4.34961 89.9506 1.73791C90.2177 1.08499 90.7222 0.788208 91.2267 0.788208C91.9687 0.788208 92.7106 1.41145 92.7106 2.24245C92.7106 2.56891 92.5919 2.83601 92.1171 3.8154L96.4204 3.78572H96.4501C97.2218 3.78572 97.6373 4.37929 97.6373 4.97285C97.6373 5.56642 97.2218 6.18967 96.4204 6.18967L90.7519 6.15999ZM99.8928 18.6249C101.792 21.8598 105.532 23.4625 109.152 24.2935C110.013 24.5012 110.429 25.0948 110.429 25.6883C110.429 26.4896 109.776 27.2613 108.707 27.2613C107.49 27.2613 100.605 25.0948 97.7856 19.8714C94.8178 26.4303 86.7453 27.5284 86.7156 27.5284C85.7659 27.5284 85.1427 26.8161 85.1427 26.1038C85.1427 25.5399 85.4988 25.0057 86.3595 24.798C91.2861 23.5812 94.1055 21.8598 95.4114 18.6249L86.953 18.6842C86.0627 18.6842 85.5878 18.0313 85.5878 17.4081C85.5878 16.7848 86.0627 16.1319 86.953 16.1319L96.0643 16.1616C96.183 15.3899 96.272 14.559 96.3017 13.6686C95.9159 13.6686 92.7106 13.7873 89.1789 13.7873C88.1699 13.7873 87.6653 13.075 87.6653 12.3628C87.6653 11.7098 88.1105 11.0866 89.0009 11.0866H89.0602C90.1583 11.1163 91.3454 11.1459 92.5326 11.1459C96.272 11.1459 100.368 10.9382 104.196 10.3446C104.077 10.2556 103.959 10.1666 103.87 10.0182C103.454 9.36525 102.742 8.80136 102.208 8.4749C101.852 8.26715 101.703 7.97037 101.703 7.67358C101.703 7.08002 102.297 6.48645 103.068 6.48645C103.899 6.48645 106.125 8.00004 106.125 9.18718C106.125 9.60267 105.918 9.95881 105.621 10.1962C106.392 10.2853 106.778 10.9085 106.778 11.5021C106.778 12.1253 106.392 12.7486 105.68 12.8673C103.781 13.1938 101.495 13.4312 99.1508 13.5499C99.1212 14.4402 99.0025 15.2416 98.8837 16.0429L98.9134 16.1616L108.529 16.1319C109.42 16.1319 109.865 16.7552 109.865 17.4081C109.865 18.061 109.42 18.6842 108.529 18.6842L99.8928 18.6249ZM93.601 10.404C93.2152 10.404 92.8294 10.2556 92.5919 9.86978C92.1171 9.1575 91.5235 8.68265 91.1971 8.44522C90.9299 8.23747 90.8409 8.02972 90.8409 7.7923C90.8409 7.19873 91.5532 6.63484 92.2655 6.63484C92.859 6.63484 95.0849 7.88133 95.0849 9.09814C95.0849 9.8401 94.343 10.404 93.601 10.404ZM101.08 6.15999C99.0618 9.36525 98.2011 9.72139 97.5779 9.72139C96.8063 9.72139 96.1533 9.18718 96.1533 8.50458C96.1533 8.20779 96.272 7.88133 96.5985 7.55487C98.3792 5.77417 99.4773 3.93411 100.397 1.55984C100.605 1.02563 101.021 0.788208 101.495 0.788208C102.208 0.788208 103.009 1.38177 103.009 2.18309C103.009 2.47987 102.95 2.59859 102.386 3.8154L109.034 3.78572C109.835 3.78572 110.251 4.37929 110.251 4.97285C110.251 5.5961 109.835 6.18967 109.034 6.18967L101.08 6.15999Z" fill="white"/>
<path d="M124.674 23.3141C123.635 23.3141 122.359 22.8392 121.142 21.7708C118.145 19.1888 117.284 15.1525 116.809 12.8376C116.572 11.7098 116.246 9.89944 116.246 9.66202C116.246 8.80135 116.987 8.23746 117.729 8.23746C118.353 8.23746 119.006 8.65295 119.213 9.63234C119.391 10.582 119.451 11.5911 119.629 12.5408C120.846 19.4559 123.635 19.723 123.814 19.723C124.11 19.723 124.377 19.4855 124.644 18.7733C124.912 18.061 125.119 17.2003 125.475 16.2506C125.713 15.657 126.128 15.4196 126.574 15.4196C127.345 15.4196 128.147 16.1022 128.147 16.9035C128.147 16.9926 128.117 17.0519 128.117 17.141C127.939 18.1203 127.345 20.0494 127.256 20.9695C127.108 22.4534 126.069 23.3141 124.674 23.3141ZM136.071 16.5771C135.804 14.5886 134.171 12.155 132.183 10.582C131.827 10.3149 131.678 9.9588 131.678 9.63234C131.678 9.00909 132.242 8.41553 133.014 8.41553C133.4 8.41553 133.845 8.56392 134.26 8.92006C135.507 9.98848 139.187 13.2531 139.187 16.2506C139.187 17.3487 138.356 17.9423 137.555 17.9423C136.872 17.9423 136.189 17.4971 136.071 16.5771Z" fill="white"/>
<path d="M148.179 24.6446C147.616 22.8342 147.408 20.9051 147.408 18.9761C147.408 13.7527 148.921 8.64799 149.07 6.60019C149.159 5.59113 149.812 5.17563 150.494 5.17563C151.236 5.17563 151.978 5.68016 151.978 6.48148C151.978 6.54083 151.978 6.62987 151.949 6.7189C151.533 8.88542 150.019 14.3759 150.019 17.3141C150.019 18.4122 150.227 18.5309 150.316 18.5309C150.376 18.5309 150.465 18.4715 150.524 18.3231C151.444 16.5721 151.652 16.216 152.275 16.216C152.898 16.216 153.492 16.8095 153.492 17.4625C153.492 17.6405 153.462 17.8186 153.343 17.9967C151.919 20.46 151.118 22.6858 151.118 23.5762C151.118 23.8433 151.147 24.1104 151.147 24.3775C151.147 25.8318 149.99 25.9208 149.663 25.9208C149.07 25.9208 148.447 25.535 148.179 24.6446ZM164.681 24.4715C159.546 24.4715 155.629 21.4146 155.629 19.9604C155.629 19.1888 156.341 18.5655 157.172 18.5655C157.617 18.5655 158.092 18.7436 158.507 19.2184C159.754 20.6133 161.861 21.2069 164.265 21.2069C165.096 21.2069 165.927 21.1475 166.788 21.0288C166.906 20.9991 167.025 20.9991 167.144 20.9991C168.153 20.9991 168.628 21.6817 168.628 22.4237C168.628 23.967 167.322 24.4715 164.681 24.4715ZM161.327 11.4427C160.021 11.4427 158.626 11.324 157.32 10.9975C156.43 10.7898 156.074 10.2259 156.074 9.662C156.074 8.94972 156.638 8.26712 157.439 8.26712C157.528 8.26712 157.617 8.26712 157.736 8.2968C158.715 8.50455 159.695 8.59358 160.615 8.59358C161.891 8.59358 163.108 8.44519 164.265 8.2968C164.354 8.2968 164.443 8.26712 164.532 8.26712C165.452 8.26712 165.957 8.94972 165.957 9.662C165.957 10.8491 165.126 11.4427 161.327 11.4427Z" fill="white"/>
<path d="M178.125 27.1426C177.235 27.1426 176.73 26.4303 176.73 25.7477C176.73 25.1541 177.116 24.5605 178.036 24.5012C180.558 24.2934 182.873 23.5515 184.832 22.5127C183.971 21.7708 183.23 20.9398 182.666 20.0791C179.223 23.2844 176.107 24.7089 175.454 24.7089C174.653 24.7089 174.148 24.056 174.148 23.4031C174.148 22.9579 174.415 22.4831 174.979 22.2456C177.709 21.0882 180.737 18.8326 183.467 15.3306C183.764 14.9448 184.209 14.7667 184.624 14.7667C185.337 14.7667 186.019 15.2415 186.019 15.9241C186.019 16.1022 185.99 16.2803 185.901 16.4584C187.652 16.4287 190.234 16.3693 190.708 16.3693C192.252 16.3693 193.023 17.2003 193.023 18.15C193.023 19.1888 192.163 20.1681 189.521 22.4237C191.629 23.2547 194.389 23.7889 197.95 23.7889C198.751 23.7889 199.167 24.4122 199.167 25.0651C199.167 26.2225 198.276 26.638 197.149 26.638C193.201 26.638 189.788 25.6586 187.177 24.145C182.992 26.7864 178.155 27.1426 178.125 27.1426ZM175.78 13.6983C174.89 13.6983 174.296 13.0157 174.296 12.3034C174.296 11.8582 174.534 11.4427 175.127 11.1756C176.76 10.4633 177.976 9.5433 179.253 8.11874C179.549 7.79228 179.906 7.67357 180.232 7.67357C180.974 7.67357 181.657 8.29681 181.657 9.03877C181.657 9.33556 181.538 9.66202 181.271 9.9588C179.668 11.6505 177.086 13.6983 175.78 13.6983ZM190.679 6.45676L190.708 7.61421L190.768 11.5614V11.6208C190.768 13.2828 189.877 15.0932 187.355 15.0932C186.524 15.0932 184.981 15.0041 184.981 13.5796C184.981 12.9266 185.396 12.2737 186.079 12.2737C186.168 12.2737 186.257 12.2737 186.375 12.3034C186.672 12.3924 186.969 12.4518 187.236 12.4518C187.77 12.4518 188.186 12.155 188.186 11.2053V6.45676H185.723V6.6645C185.723 11.3537 183.793 14.1731 180.351 16.2506C179.995 16.4584 179.668 16.5474 179.371 16.5474C178.54 16.5474 177.917 15.8648 177.917 15.1822C177.917 14.737 178.184 14.2918 178.778 13.9951C181.805 12.5705 183.111 10.493 183.111 6.93161V6.45676H175.869C174.949 6.45676 174.474 5.83351 174.474 5.18059C174.474 4.52766 174.979 3.84506 175.869 3.84506H185.307V2.03468C185.307 1.11465 186.049 0.639801 186.821 0.639801C187.592 0.639801 188.334 1.11465 188.334 2.03468V3.84506H197.683C198.573 3.84506 199.018 4.49799 199.018 5.15091C199.018 5.80383 198.573 6.45676 197.683 6.45676H190.679ZM187.028 21.0882C187.8 20.4946 188.483 19.8714 189.076 19.2184C189.225 19.0404 189.284 18.892 189.284 18.8029C189.284 18.5952 189.106 18.5358 188.928 18.5358H188.839C188.69 18.5655 186.227 18.5952 184.506 18.5952C185.159 19.5152 185.99 20.3462 187.028 21.0882ZM196.466 13.2828C195.338 12.0363 193.676 10.9679 192.252 10.3743C191.747 10.1665 191.569 9.81041 191.569 9.42459C191.569 8.71231 192.192 7.97035 192.994 7.97035C193.587 7.97035 196.525 9.06845 198.514 10.9679C198.87 11.2943 199.018 11.7098 199.018 12.0956C199.018 12.9563 198.276 13.7576 197.475 13.7576C197.119 13.7576 196.793 13.6092 196.466 13.2828Z" fill="white"/>
<path d="M217.36 21.2366C217.627 22.3347 218.191 23.1954 219.586 23.1954C220.802 23.1954 223.236 22.7502 224.542 22.0973C224.898 21.9192 225.195 21.8598 225.492 21.8598C226.382 21.8598 226.946 22.5424 226.946 23.2844C226.946 25.4509 222.494 25.9555 220.387 25.9555C216.529 25.9555 215.045 24.1451 214.807 22.216C214.659 21.0585 214.362 20.5837 213.917 20.5837C212.967 20.5837 211.424 22.8986 209.732 24.709C209.02 25.4806 208.516 25.6883 207.892 25.6883C206.468 25.6883 206.082 24.887 206.082 24.4122C206.082 24.056 206.29 23.6405 206.794 23.1954C214.689 16.5474 218.102 12.5112 218.517 12.0363C218.636 11.8879 218.695 11.7989 218.695 11.7692C218.695 11.7692 218.695 11.7395 218.665 11.7395C218.606 11.7395 218.428 11.8582 218.28 11.9176C216.855 12.5705 212.73 14.3809 210.89 14.3809C209.881 14.3809 209.376 13.728 209.376 13.0454C209.376 12.4221 209.821 11.7692 210.712 11.6505C212.136 11.4427 215.282 10.6118 218.339 9.63237C219.111 9.39494 219.111 9.30591 219.882 9.00912C220.149 8.92009 220.417 8.86073 220.654 8.86073C221.722 8.86073 222.583 9.7214 222.583 10.7008C222.583 11.146 222.405 11.6208 221.989 12.066C220.595 13.5202 216.914 17.2003 215.342 18.5359C216.707 18.5952 217.122 20.1682 217.36 21.2366ZM219.348 7.34714C217.567 7.34714 213.709 5.00255 213.709 3.6967C213.709 3.04378 214.332 2.53925 215.074 2.53925C215.49 2.53925 215.935 2.68764 216.351 3.04378C217.36 3.93413 218.28 4.3793 219.764 4.52769C220.654 4.61673 221.04 5.15094 221.04 5.74451C221.04 6.42711 220.506 7.34714 219.348 7.34714Z" fill="white"/>
<path d="M252.054 18.0907C252.054 14.9745 248.284 14.9745 248.017 14.9745C244.693 14.9745 242.141 17.4081 240.924 18.9217C240.598 19.3372 240.153 19.5152 239.737 19.5152C238.936 19.5152 238.164 18.892 238.164 18.0907C238.164 17.7049 238.342 17.2894 238.758 16.8739C243.031 12.6595 247.364 7.3768 247.364 7.05034C247.364 6.99098 247.335 6.9613 247.275 6.9613C247.216 6.9613 247.157 6.99098 247.068 7.02066C244.842 8.41554 242.022 9.18718 241.132 9.18718C240.123 9.18718 239.589 8.44522 239.589 7.73294C239.589 7.1097 239.975 6.51613 240.835 6.42709C243.773 6.15999 247.513 4.82446 248.344 4.40897C248.7 4.2309 249.086 4.17154 249.412 4.17154C250.51 4.17154 251.371 4.97285 251.371 5.92256C251.371 6.39742 251.163 6.90195 250.688 7.3768C248.67 9.30589 246.385 11.8286 244.515 13.906C245.792 13.075 247.305 12.7189 248.759 12.7189C251.905 12.7189 255.021 14.648 255.021 17.9423C255.021 21.9192 250.926 25.718 245.792 25.718C242.23 25.718 240.36 23.6702 240.36 21.9192C240.36 20.3166 241.844 19.1294 243.684 19.1294C246.266 19.1294 248.047 20.554 248.314 22.8392C249.59 22.5128 252.054 20.4056 252.054 18.0907ZM243.951 21.2663C242.942 21.2663 242.913 21.9192 242.913 22.0379C242.913 23.1954 244.931 23.3437 245.673 23.3437H245.881C245.792 22.0676 245.139 21.2663 243.951 21.2663Z" fill="white"/>
<path d="M267.991 26.1632C265.409 27.7064 263.302 24.7386 266.002 23.3734C270.395 21.1772 272.413 17.7939 273.066 14.1138C273.214 13.2234 273.214 12.155 273.066 11.413C272.71 9.57299 276.063 8.92006 276.479 11.1163C276.538 11.413 276.538 11.8582 276.538 12.3331C278.319 11.4724 280.515 9.89945 281.613 8.38585C282.118 7.70325 282.207 7.34711 281.079 7.40647C277.34 7.55486 272.561 8.20778 271.226 8.38585C269.623 8.5936 268.822 8.83103 267.16 8.77167C265.231 8.71231 264.875 5.62577 267.368 5.68512C268.644 5.7148 270.039 5.53673 271.285 5.4477C272.591 5.35866 277.547 4.88381 282.326 4.6167C285.65 4.43863 286.926 6.93161 284.818 9.39492C282.919 11.6208 280.396 13.9654 277.369 15.0932C276.924 15.2712 276.479 15.2712 276.123 15.1228C274.995 19.723 272.71 23.3141 267.991 26.1632Z" fill="white"/>
<path d="M297.699 22.7798C303.931 20.5243 308.68 14.1138 310.342 9.84009C310.55 9.33556 310.193 9.12781 309.808 9.15748C307.522 9.2762 303.575 9.92912 301.527 10.1665C299.717 10.3743 299.539 10.5524 297.788 10.493C295.592 10.404 295.354 7.16904 297.996 7.31743C299.301 7.37678 300.4 7.25807 301.646 7.16904C304.139 6.99097 308.175 6.33804 311.499 6.13029C313.992 5.9819 315.15 7.61421 314.259 9.42459C311.143 15.7758 307.344 22.305 299.034 25.718C296.156 26.9051 295.117 23.7295 297.699 22.7798ZM316.545 6.84257C314.823 6.84257 313.458 5.47737 313.458 3.75603C313.458 2.03468 314.823 0.639801 316.545 0.639801C318.266 0.639801 319.661 2.03468 319.661 3.75603C319.661 5.47737 318.266 6.84257 316.545 6.84257ZM316.545 2.24243C315.714 2.24243 315.061 2.92503 315.061 3.75603C315.061 4.58702 315.714 5.23994 316.545 5.23994C317.376 5.23994 318.058 4.58702 318.058 3.75603C318.058 2.92503 317.376 2.24243 316.545 2.24243Z" fill="white"/>
<path d="M329.188 24.4418C334.678 21.8301 337.29 16.2506 337.26 11.7692C337.23 9.39492 337.409 8.4749 337.349 7.02066C337.319 6.2787 337.26 5.15092 337.112 4.55736C336.548 2.24244 340.287 1.8863 340.436 4.40896C340.525 5.65545 340.495 6.10063 340.495 7.02066C340.495 8.08908 340.465 8.62329 340.436 9.18718C340.406 9.75106 340.376 10.404 340.406 11.6505C340.495 17.2597 337.141 23.9076 330.879 27.0832C328.386 28.3594 327.229 25.3619 329.188 24.4418ZM330.137 15.3603C330.612 13.3125 330.553 9.98849 330.286 8.11876C330.197 7.55487 330.078 6.9613 329.93 6.39741C329.306 3.75604 332.927 3.19215 333.194 5.77417C333.283 6.60516 333.313 7.49551 333.313 8.23747C333.283 9.39492 333.343 10.8788 333.372 12.0363C333.402 13.1938 333.402 14.2919 333.224 15.479C332.808 18.1797 329.662 17.4081 330.137 15.3603Z" fill="white"/>
</g>
<defs>
<clipPath id="clip0_383_305">
<rect width="340" height="85.5973" fill="white" transform="translate(0.5 0.639801)"/>
</clipPath>
</defs>
</svg>
