<svg width="393" height="852" viewBox="0 0 393 852" fill="none" xmlns="http://www.w3.org/2000/svg">
<rect width="393" height="852" fill="#FF9350"/>
<g clip-path="url(#clip0_165_1208)">
<path d="M86.6742 229.337H95.0292V254.442H99.2268C100.392 254.442 101.381 254.031 102.199 253.207C103.018 252.384 103.424 251.41 103.424 250.285V229.337H111.779V254.442H115.977C117.117 254.442 118.091 254.031 118.909 253.207C119.728 252.384 120.134 251.41 120.134 250.285V229.337H128.529V244.34C128.529 248.236 127.129 251.595 124.322 254.412C121.515 257.229 118.151 258.64 114.23 258.64H103.424V257.304C101.818 258.193 99.8343 258.64 97.4794 258.64H86.6742V229.337Z" fill="#743E3E" stroke="#743E3E" stroke-width="0.376577" stroke-miterlimit="10"/>
<path d="M153.635 241.89V237.732C153.635 236.582 153.218 235.593 152.389 234.77C151.561 233.946 150.577 233.535 149.437 233.535H145.239C142.769 233.535 141.383 234.936 141.082 237.732H136.884C137.527 232.134 140.309 229.337 145.239 229.337H153.635C155.924 229.337 157.887 230.166 159.529 231.817C161.171 233.469 161.99 235.443 161.99 237.732V258.64H153.635V254.442C153.308 257.239 151.907 258.64 149.437 258.64H145.239C142.95 258.64 140.987 257.821 139.345 256.18C137.703 254.538 136.884 252.574 136.884 250.285V250.245C136.884 247.955 137.708 245.992 139.355 244.35C141.002 242.708 142.965 241.89 145.239 241.89H153.635ZM153.635 246.087H149.437C148.287 246.087 147.298 246.494 146.475 247.312C145.651 248.131 145.239 249.105 145.239 250.245V250.285C145.239 251.41 145.646 252.384 146.465 253.207C147.283 254.031 148.272 254.442 149.437 254.442C150.602 254.442 151.591 254.031 152.409 253.207C153.228 252.384 153.635 251.41 153.635 250.285V246.087Z" fill="#743E3E" stroke="#743E3E" stroke-width="0.376577" stroke-miterlimit="10"/>
<path d="M170.345 246.087V241.89H191.252V246.087H170.345Z" fill="#743E3E" stroke="#743E3E" stroke-width="0.376577" stroke-miterlimit="10"/>
<path d="M199.647 258.64V220.982H208.002V258.64H199.647Z" fill="#743E3E" stroke="#743E3E" stroke-width="0.376577" stroke-miterlimit="10"/>
<path d="M216.392 225.18V220.982H224.747V225.18H216.392ZM216.392 258.64V229.337H224.747V258.64H216.392Z" fill="#743E3E" stroke="#743E3E" stroke-width="0.376577" stroke-miterlimit="10"/>
<path d="M249.893 229.337H258.248V244.34C258.248 248.236 256.847 251.595 254.04 254.412C251.233 257.229 247.869 258.64 243.948 258.64H233.143V229.337H241.498V254.442H245.695C246.86 254.442 247.849 254.031 248.668 253.207C249.486 252.384 249.893 251.41 249.893 250.285V229.337Z" fill="#743E3E" stroke="#743E3E" stroke-width="0.376577" stroke-miterlimit="10"/>
<path d="M291.708 246.087H274.958V250.285C274.958 251.41 275.364 252.384 276.183 253.207C277.001 254.031 277.99 254.442 279.155 254.442H283.353C286.124 254.442 287.51 253.056 287.51 250.285H291.708C291.055 255.853 288.268 258.64 283.353 258.64H274.958C272.668 258.64 270.705 257.821 269.063 256.18C267.421 254.538 266.603 252.574 266.603 250.285V237.732C266.603 235.418 267.426 233.439 269.073 231.797C270.72 230.156 272.683 229.337 274.958 229.337H283.353C285.642 229.337 287.606 230.166 289.248 231.817C290.889 233.469 291.708 235.443 291.708 237.732V246.087ZM274.958 241.89H283.353V237.732C283.353 236.582 282.936 235.593 282.108 234.77C281.279 233.946 280.295 233.535 279.155 233.535C278.016 233.535 277.016 233.946 276.193 234.77C275.369 235.593 274.958 236.582 274.958 237.732V241.89Z" fill="#743E3E" stroke="#743E3E" stroke-width="0.376577" stroke-miterlimit="10"/>
<path d="M304.22 246.087V220.982H312.595V246.087H304.22ZM304.22 258.64V250.285H312.595V258.64H304.22Z" fill="#743E3E" stroke="#743E3E" stroke-width="0.376577" stroke-miterlimit="10"/>
<path d="M84.5855 227.258H92.9405V252.364H97.1381C98.303 252.364 99.2921 251.952 100.111 251.128C100.929 250.305 101.336 249.331 101.336 248.206V227.258H109.691V252.364H113.888C115.028 252.364 116.002 251.952 116.821 251.128C117.639 250.305 118.046 249.331 118.046 248.206V227.258H126.441V242.261C126.441 246.158 125.04 249.517 122.233 252.333C119.426 255.15 116.062 256.561 112.141 256.561H101.336V255.226C99.7289 256.114 97.7456 256.561 95.3908 256.561H84.5855V227.258Z" fill="white" stroke="black" stroke-width="0.376577" stroke-miterlimit="10"/>
<path d="M151.546 239.811V235.654C151.546 234.504 151.129 233.515 150.301 232.691C149.472 231.868 148.488 231.456 147.348 231.456H143.151C140.68 231.456 139.295 232.857 138.993 235.654H134.796C135.438 230.055 138.22 227.258 143.151 227.258H151.546C153.835 227.258 155.799 228.087 157.441 229.739C159.082 231.391 159.901 233.364 159.901 235.654V256.561H151.546V252.364C151.22 255.16 149.819 256.561 147.348 256.561H143.151C140.861 256.561 138.898 255.743 137.256 254.101C135.614 252.459 134.796 250.496 134.796 248.206V248.166C134.796 245.876 135.619 243.913 137.266 242.271C138.913 240.629 140.876 239.811 143.151 239.811H151.546ZM151.546 244.009H147.348C146.198 244.009 145.209 244.415 144.386 245.234C143.562 246.052 143.151 247.026 143.151 248.166V248.206C143.151 249.331 143.557 250.305 144.376 251.128C145.194 251.952 146.183 252.364 147.348 252.364C148.513 252.364 149.502 251.952 150.321 251.128C151.139 250.305 151.546 249.331 151.546 248.206V244.009Z" fill="white" stroke="black" stroke-width="0.376577" stroke-miterlimit="10"/>
<path d="M168.256 244.009V239.811H189.163V244.009H168.256Z" fill="white" stroke="black" stroke-width="0.376577" stroke-miterlimit="10"/>
<path d="M197.559 256.561V218.903H205.914V256.561H197.559Z" fill="white" stroke="black" stroke-width="0.376577" stroke-miterlimit="10"/>
<path d="M214.304 223.101V218.903H222.659V223.101H214.304ZM214.304 256.561V227.258H222.659V256.561H214.304Z" fill="white" stroke="black" stroke-width="0.376577" stroke-miterlimit="10"/>
<path d="M247.804 227.258H256.159V242.261C256.159 246.158 254.758 249.517 251.951 252.333C249.145 255.15 245.78 256.561 241.859 256.561H231.054V227.258H239.409V252.364H243.606C244.771 252.364 245.76 251.952 246.579 251.128C247.397 250.305 247.804 249.331 247.804 248.206V227.258Z" fill="white" stroke="black" stroke-width="0.376577" stroke-miterlimit="10"/>
<path d="M289.619 244.009H272.869V248.206C272.869 249.331 273.276 250.305 274.094 251.128C274.913 251.952 275.902 252.364 277.067 252.364H281.264C284.036 252.364 285.422 250.978 285.422 248.206H289.619C288.966 253.774 286.18 256.561 281.264 256.561H272.869C270.579 256.561 268.616 255.743 266.974 254.101C265.332 252.459 264.514 250.496 264.514 248.206V235.654C264.514 233.339 265.337 231.361 266.984 229.719C268.631 228.077 270.594 227.258 272.869 227.258H281.264C283.554 227.258 285.517 228.087 287.159 229.739C288.801 231.391 289.619 233.364 289.619 235.654V244.009ZM272.869 239.811H281.264V235.654C281.264 234.504 280.847 233.515 280.019 232.691C279.19 231.868 278.206 231.456 277.067 231.456C275.927 231.456 274.928 231.868 274.104 232.691C273.281 233.515 272.869 234.504 272.869 235.654V239.811Z" fill="white" stroke="black" stroke-width="0.376577" stroke-miterlimit="10"/>
<path d="M302.132 244.009V218.903H310.507V244.009H302.132ZM302.132 256.561V248.206H310.507V256.561H302.132Z" fill="white" stroke="black" stroke-width="0.376577" stroke-miterlimit="10"/>
<path d="M39.321 198.223C38.0152 198.282 36.4126 198.282 34.8396 198.282C33.2667 198.282 31.7531 198.282 30.5363 198.223C27.9542 198.134 26.6781 196.828 26.589 194.631C26.5297 192.702 26.5 189.467 26.5 186.232C26.5 183.354 26.5297 180.445 26.589 178.457C26.6484 176.557 28.073 175.311 30.2988 175.222C31.4266 175.192 33.3557 175.162 35.2551 175.162C36.8281 175.162 38.3713 175.192 39.3804 175.222C41.1908 175.281 42.9418 176.557 43.0012 178.694C43.0605 180.505 43.0902 183.472 43.0902 186.44C43.0902 189.705 43.0605 192.969 43.0012 194.542C42.9418 196.62 41.4579 198.134 39.321 198.223ZM40.1817 184.571C40.1817 182.701 40.152 180.979 40.1224 179.792C40.063 177.744 39.6178 177.715 34.8693 177.715C29.8537 177.715 29.4382 177.744 29.3491 179.792C29.3194 181.009 29.2898 182.701 29.2898 184.571H40.1817ZM29.2898 187.182C29.2898 189.675 29.2898 192.049 29.3491 193.474C29.4085 195.403 29.7349 195.522 34.7803 195.522C35.9377 195.522 37.1248 195.522 37.8965 195.492C39.5585 195.433 40.063 194.661 40.1224 193.385C40.1817 191.901 40.1817 189.556 40.1817 187.182H29.2898Z" fill="white"/>
<path d="M73.5105 183.146V181.751C73.5105 180.386 73.4214 179.97 71.9672 179.941C69.5929 179.911 66.4767 179.881 63.4792 179.881C61.0159 179.881 58.6416 179.911 56.8313 179.941C55.2286 179.97 55.1989 180.594 55.1693 181.336V183.087C55.1693 183.888 54.4273 184.303 53.715 184.303C53.0027 184.303 52.3498 183.918 52.3498 183.057C52.3498 182.671 52.3201 182.196 52.3201 181.751C52.3201 181.276 52.3498 180.831 52.3498 180.445C52.4092 179.021 53.2402 177.715 55.4957 177.685C56.4454 177.685 57.4545 177.655 58.4636 177.655C57.8997 176.765 57.1874 176.112 56.4751 175.459C56.2377 175.251 56.119 175.014 56.119 174.777C56.119 174.183 56.8609 173.589 57.6029 173.589C58.7307 173.589 61.1346 176.112 61.1346 177.003C61.1346 177.21 61.0753 177.418 60.9565 177.626H62.9747V174.213C62.9747 173.174 63.6869 172.669 64.4289 172.669C65.1709 172.669 65.8831 173.174 65.8831 174.213V177.596C66.5064 177.596 67.1593 177.626 67.7826 177.626C68.4652 176.676 69.0884 175.281 69.4742 174.302C69.7116 173.649 70.2162 173.382 70.7504 173.382C71.522 173.382 72.3233 173.975 72.3233 174.777C72.3233 175.578 70.8097 177.418 70.6317 177.626C71.522 177.626 72.3827 177.655 73.2137 177.685C75.0241 177.715 76.3002 178.724 76.3893 180.386C76.419 180.772 76.4486 181.276 76.4486 181.781C76.4486 182.256 76.419 182.76 76.3893 183.146C76.3299 183.977 75.6176 184.392 74.9054 184.392C74.1931 184.392 73.5105 183.977 73.5105 183.176V183.146ZM63.034 191.96C61.6095 191.96 60.1849 191.99 58.9384 191.99C58.2855 191.99 57.7216 192.406 57.6919 193.118C57.6622 193.563 57.6622 194.068 57.6622 194.631C57.6622 195.373 57.6622 196.175 57.6919 196.917V196.946C57.6919 197.837 57.0093 198.312 56.297 198.312C55.5848 198.312 54.8725 197.837 54.8428 196.917C54.8428 196.323 54.8131 195.581 54.8131 194.839C54.8131 194.097 54.8428 193.266 54.8428 192.613C54.9022 190.595 56.0893 189.794 58.1668 189.764C59.6804 189.735 61.3424 189.705 63.034 189.705V188.073C58.3448 188.073 57.0687 187.894 57.0687 184.867C57.0687 182.908 57.3358 181.573 60.0365 181.543C61.6391 181.514 63.3902 181.514 65.1115 181.514C66.358 181.514 67.6045 181.514 68.8213 181.543C71.522 181.573 71.6111 183.205 71.6111 184.749C71.6111 187.835 70.5723 188.073 65.8535 188.073V189.705C67.6045 189.705 69.3555 189.735 71.0175 189.764C72.8872 189.794 74.0744 190.744 74.104 192.673C74.104 193.326 74.1337 193.949 74.1337 194.661C74.1337 197.095 72.4717 198.163 70.0381 198.163C67.1593 198.163 66.8625 197.421 66.8625 196.709C66.8625 196.056 67.278 195.403 67.9903 195.403C68.0793 195.403 68.1981 195.403 68.2871 195.433C68.7916 195.551 69.2665 195.611 69.682 195.611C71.2549 195.611 71.344 194.81 71.344 193.86C71.344 192.554 71.1956 191.99 70.1271 191.99C68.8213 191.99 67.3671 191.96 65.8535 191.96L65.8831 198.133C65.8831 199.054 65.1709 199.528 64.4586 199.528C63.7463 199.528 63.0043 199.054 63.0043 198.133L63.034 191.96ZM67.8419 183.621C66.7438 183.591 65.5864 183.591 64.3695 183.591C63.1527 183.591 61.9953 183.591 60.8081 183.621C60.3927 183.621 59.8584 183.739 59.8584 184.719C59.8584 185.817 60.1255 185.847 64.0431 185.847C68.8213 185.847 68.8213 185.817 68.8213 184.749C68.8213 184.244 68.7916 183.621 67.8419 183.621Z" fill="white"/>
<path d="M97.1641 190.061C97.1641 190.566 97.1641 191.1 97.1048 191.693C97.0157 192.88 96.2144 193.504 95.5022 193.504C94.8492 193.504 94.2853 193.029 94.2853 192.109V191.842C94.3744 191.129 94.4041 190.447 94.4041 189.853C93.7808 190.18 91.0207 191.634 91.0207 193.504C91.0207 194.008 91.2581 195.759 94.2853 195.759C95.6505 195.759 97.1641 195.403 98.0248 195.136C98.2919 195.047 98.559 195.017 98.7668 195.017C99.7462 195.017 100.31 195.7 100.31 196.412C100.31 197.035 100.073 198.549 94.9976 198.549C89.9226 198.549 88.3497 195.997 88.3497 193.83C88.3497 190.209 92.564 187.954 94.1073 187.153C93.7511 185.995 93.1576 185.401 92.3562 185.401C91.8814 185.401 91.3769 185.58 90.813 185.936C89.5665 187.331 88.8245 187.746 88.1716 187.746C87.4593 187.746 86.8954 187.271 86.8954 186.618C86.8954 186.262 87.0735 185.817 87.578 185.401C89.1807 183.977 89.982 183.235 91.3769 180.89C90.8427 180.979 90.3678 181.009 89.9226 181.009C86.9251 181.009 86.8954 179.347 86.8954 179.11C86.8954 178.427 87.4 177.804 88.1122 177.804C88.4387 177.804 88.7948 177.923 89.1807 178.19C89.4478 178.368 89.8336 178.427 90.2788 178.427C90.5162 178.427 91.2878 178.397 92.6233 178.101C92.8905 177.329 93.0092 176.765 93.1576 175.756C93.2763 175.014 93.8105 174.717 94.4041 174.717C95.1757 174.717 96.0067 175.251 96.0067 176.023C96.0067 176.379 95.888 176.854 95.8286 177.121C96.719 176.676 96.8377 176.646 97.0454 176.646C97.7577 176.646 98.3216 177.24 98.3216 177.952C98.3216 178.932 97.55 179.525 94.4634 180.267C94.0182 181.187 93.4247 182.196 92.7717 183.235C94.404 183.235 95.7396 184.155 96.5112 186.025C100.251 184.422 102.862 183.621 103.367 183.621C104.435 183.621 105.029 184.422 105.029 185.164C105.029 185.639 104.762 186.114 104.228 186.322C103.308 186.707 102.328 186.826 100.785 187.301C99.5384 187.687 98.2622 188.162 97.1048 188.636C97.1641 189.082 97.1641 189.556 97.1641 190.061Z" fill="white"/>
<path d="M116.752 178.16C115.802 179.614 114.734 180.979 113.428 182.137C113.012 182.523 112.538 182.671 112.152 182.671C111.35 182.671 110.727 182.107 110.727 181.365C110.727 180.95 110.965 180.475 111.499 180.03C113.576 178.338 114.882 176.35 115.951 173.738C116.218 173.085 116.722 172.788 117.227 172.788C117.969 172.788 118.711 173.411 118.711 174.242C118.711 174.569 118.592 174.836 118.117 175.815L122.42 175.786H122.45C123.222 175.786 123.637 176.379 123.637 176.973C123.637 177.566 123.222 178.19 122.42 178.19L116.752 178.16ZM125.893 190.625C127.792 193.86 131.532 195.462 135.152 196.293C136.013 196.501 136.429 197.095 136.429 197.688C136.429 198.49 135.776 199.261 134.707 199.261C133.49 199.261 126.605 197.095 123.786 191.871C120.818 198.43 112.745 199.528 112.716 199.528C111.766 199.528 111.143 198.816 111.143 198.104C111.143 197.54 111.499 197.006 112.359 196.798C117.286 195.581 120.106 193.86 121.411 190.625L112.953 190.684C112.063 190.684 111.588 190.031 111.588 189.408C111.588 188.785 112.063 188.132 112.953 188.132L122.064 188.162C122.183 187.39 122.272 186.559 122.302 185.669C121.916 185.669 118.711 185.787 115.179 185.787C114.17 185.787 113.665 185.075 113.665 184.363C113.665 183.71 114.111 183.087 115.001 183.087H115.06C116.158 183.116 117.345 183.146 118.533 183.146C122.272 183.146 126.368 182.938 130.196 182.345C130.077 182.256 129.959 182.167 129.87 182.018C129.454 181.365 128.742 180.801 128.208 180.475C127.852 180.267 127.703 179.97 127.703 179.674C127.703 179.08 128.297 178.486 129.068 178.486C129.899 178.486 132.125 180 132.125 181.187C132.125 181.603 131.918 181.959 131.621 182.196C132.392 182.285 132.778 182.909 132.778 183.502C132.778 184.125 132.392 184.749 131.68 184.867C129.781 185.194 127.495 185.431 125.151 185.55C125.121 186.44 125.002 187.242 124.884 188.043L124.913 188.162L134.529 188.132C135.42 188.132 135.865 188.755 135.865 189.408C135.865 190.061 135.42 190.684 134.529 190.684L125.893 190.625ZM119.601 182.404C119.215 182.404 118.829 182.256 118.592 181.87C118.117 181.157 117.524 180.683 117.197 180.445C116.93 180.237 116.841 180.03 116.841 179.792C116.841 179.199 117.553 178.635 118.265 178.635C118.859 178.635 121.085 179.881 121.085 181.098C121.085 181.84 120.343 182.404 119.601 182.404ZM127.08 178.16C125.062 181.365 124.201 181.721 123.578 181.721C122.806 181.721 122.153 181.187 122.153 180.505C122.153 180.208 122.272 179.881 122.599 179.555C124.379 177.774 125.477 175.934 126.397 173.56C126.605 173.026 127.021 172.788 127.495 172.788C128.208 172.788 129.009 173.382 129.009 174.183C129.009 174.48 128.95 174.599 128.386 175.815L135.034 175.786C135.835 175.786 136.251 176.379 136.251 176.973C136.251 177.596 135.835 178.19 135.034 178.19L127.08 178.16Z" fill="white"/>
<path d="M150.674 195.314C149.635 195.314 148.359 194.839 147.142 193.771C144.145 191.189 143.284 187.153 142.809 184.838C142.572 183.71 142.246 181.899 142.246 181.662C142.246 180.801 142.987 180.237 143.729 180.237C144.353 180.237 145.006 180.653 145.213 181.632C145.391 182.582 145.451 183.591 145.629 184.541C146.846 191.456 149.635 191.723 149.814 191.723C150.11 191.723 150.377 191.486 150.644 190.773C150.912 190.061 151.119 189.2 151.475 188.251C151.713 187.657 152.128 187.42 152.574 187.42C153.345 187.42 154.147 188.102 154.147 188.904C154.147 188.993 154.117 189.052 154.117 189.141C153.939 190.12 153.345 192.049 153.256 192.969C153.108 194.453 152.069 195.314 150.674 195.314ZM162.071 188.577C161.804 186.589 160.171 184.155 158.183 182.582C157.827 182.315 157.678 181.959 157.678 181.632C157.678 181.009 158.242 180.416 159.014 180.416C159.4 180.416 159.845 180.564 160.26 180.92C161.507 181.988 165.187 185.253 165.187 188.251C165.187 189.349 164.356 189.942 163.555 189.942C162.872 189.942 162.189 189.497 162.071 188.577Z" fill="white"/>
<path d="M174.179 196.645C173.616 194.834 173.408 192.905 173.408 190.976C173.408 185.753 174.921 180.648 175.07 178.6C175.159 177.591 175.812 177.176 176.494 177.176C177.236 177.176 177.978 177.68 177.978 178.481C177.978 178.541 177.978 178.63 177.949 178.719C177.533 180.885 176.019 186.376 176.019 189.314C176.019 190.412 176.227 190.531 176.316 190.531C176.376 190.531 176.465 190.472 176.524 190.323C177.444 188.572 177.652 188.216 178.275 188.216C178.898 188.216 179.492 188.81 179.492 189.462C179.492 189.641 179.462 189.819 179.343 189.997C177.919 192.46 177.118 194.686 177.118 195.576C177.118 195.843 177.147 196.11 177.147 196.378C177.147 197.832 175.99 197.921 175.663 197.921C175.07 197.921 174.447 197.535 174.179 196.645ZM190.681 196.471C185.546 196.471 181.629 193.415 181.629 191.96C181.629 191.189 182.341 190.566 183.172 190.566C183.617 190.566 184.092 190.744 184.507 191.218C185.754 192.613 187.861 193.207 190.265 193.207C191.096 193.207 191.927 193.148 192.788 193.029C192.906 192.999 193.025 192.999 193.144 192.999C194.153 192.999 194.628 193.682 194.628 194.424C194.628 195.967 193.322 196.471 190.681 196.471ZM187.327 183.443C186.021 183.443 184.626 183.324 183.32 182.998C182.43 182.79 182.074 182.226 182.074 181.662C182.074 180.95 182.638 180.267 183.439 180.267C183.528 180.267 183.617 180.267 183.736 180.297C184.715 180.505 185.695 180.594 186.615 180.594C187.891 180.594 189.108 180.445 190.265 180.297C190.354 180.297 190.443 180.267 190.532 180.267C191.452 180.267 191.957 180.95 191.957 181.662C191.957 182.849 191.126 183.443 187.327 183.443Z" fill="white"/>
<path d="M204.125 199.143C203.235 199.143 202.73 198.43 202.73 197.748C202.73 197.154 203.116 196.561 204.036 196.501C206.558 196.293 208.873 195.551 210.832 194.513C209.971 193.771 209.23 192.94 208.666 192.079C205.223 195.284 202.107 196.709 201.454 196.709C200.653 196.709 200.148 196.056 200.148 195.403C200.148 194.958 200.415 194.483 200.979 194.246C203.709 193.088 206.737 190.833 209.467 187.331C209.764 186.945 210.209 186.767 210.624 186.767C211.337 186.767 212.019 187.242 212.019 187.924C212.019 188.102 211.99 188.28 211.901 188.458C213.652 188.429 216.234 188.369 216.708 188.369C218.252 188.369 219.023 189.2 219.023 190.15C219.023 191.189 218.163 192.168 215.521 194.424C217.629 195.255 220.389 195.789 223.95 195.789C224.751 195.789 225.167 196.412 225.167 197.065C225.167 198.223 224.276 198.638 223.149 198.638C219.201 198.638 215.788 197.659 213.177 196.145C208.992 198.786 204.155 199.143 204.125 199.143ZM201.78 185.698C200.89 185.698 200.296 185.016 200.296 184.303C200.296 183.858 200.534 183.443 201.127 183.176C202.76 182.463 203.976 181.543 205.253 180.119C205.549 179.792 205.906 179.674 206.232 179.674C206.974 179.674 207.657 180.297 207.657 181.039C207.657 181.336 207.538 181.662 207.271 181.959C205.668 183.65 203.086 185.698 201.78 185.698ZM216.679 178.457L216.708 179.614L216.768 183.561V183.621C216.768 185.283 215.877 187.093 213.355 187.093C212.524 187.093 210.981 187.004 210.981 185.58C210.981 184.927 211.396 184.274 212.079 184.274C212.168 184.274 212.257 184.274 212.375 184.303C212.672 184.392 212.969 184.452 213.236 184.452C213.77 184.452 214.186 184.155 214.186 183.205V178.457H211.723V178.665C211.723 183.354 209.793 186.173 206.351 188.251C205.995 188.458 205.668 188.547 205.371 188.547C204.54 188.547 203.917 187.865 203.917 187.182C203.917 186.737 204.184 186.292 204.778 185.995C207.805 184.57 209.111 182.493 209.111 178.932V178.457H201.869C200.949 178.457 200.474 177.834 200.474 177.181C200.474 176.528 200.979 175.845 201.869 175.845H211.307V174.035C211.307 173.115 212.049 172.64 212.821 172.64C213.592 172.64 214.334 173.115 214.334 174.035V175.845H223.683C224.573 175.845 225.018 176.498 225.018 177.151C225.018 177.804 224.573 178.457 223.683 178.457H216.679ZM213.028 193.088C213.8 192.495 214.483 191.871 215.076 191.218C215.225 191.04 215.284 190.892 215.284 190.803C215.284 190.595 215.106 190.536 214.928 190.536H214.839C214.69 190.566 212.227 190.595 210.506 190.595C211.159 191.515 211.99 192.346 213.028 193.088ZM222.466 185.283C221.338 184.036 219.676 182.968 218.252 182.374C217.747 182.167 217.569 181.81 217.569 181.425C217.569 180.712 218.192 179.97 218.994 179.97C219.587 179.97 222.525 181.068 224.514 182.968C224.87 183.294 225.018 183.71 225.018 184.096C225.018 184.956 224.276 185.758 223.475 185.758C223.119 185.758 222.793 185.609 222.466 185.283Z" fill="white"/>
<path d="M243.36 193.237C243.627 194.335 244.191 195.195 245.586 195.195C246.802 195.195 249.236 194.75 250.542 194.097C250.898 193.919 251.195 193.86 251.492 193.86C252.382 193.86 252.946 194.542 252.946 195.284C252.946 197.451 248.494 197.955 246.387 197.955C242.529 197.955 241.045 196.145 240.807 194.216C240.659 193.059 240.362 192.584 239.917 192.584C238.967 192.584 237.424 194.899 235.732 196.709C235.02 197.481 234.516 197.688 233.892 197.688C232.468 197.688 232.082 196.887 232.082 196.412C232.082 196.056 232.29 195.641 232.794 195.195C240.689 188.547 244.102 184.511 244.517 184.036C244.636 183.888 244.695 183.799 244.695 183.769C244.695 183.769 244.695 183.74 244.665 183.74C244.606 183.74 244.428 183.858 244.28 183.918C242.855 184.571 238.73 186.381 236.89 186.381C235.881 186.381 235.376 185.728 235.376 185.045C235.376 184.422 235.821 183.769 236.712 183.65C238.136 183.443 241.282 182.612 244.339 181.632C245.111 181.395 245.111 181.306 245.882 181.009C246.149 180.92 246.417 180.861 246.654 180.861C247.722 180.861 248.583 181.721 248.583 182.701C248.583 183.146 248.405 183.621 247.989 184.066C246.595 185.52 242.914 189.2 241.342 190.536C242.707 190.595 243.122 192.168 243.36 193.237ZM245.348 179.347C243.567 179.347 239.709 177.003 239.709 175.697C239.709 175.044 240.332 174.539 241.074 174.539C241.49 174.539 241.935 174.688 242.351 175.044C243.36 175.934 244.28 176.379 245.764 176.528C246.654 176.617 247.04 177.151 247.04 177.745C247.04 178.427 246.506 179.347 245.348 179.347Z" fill="white"/>
<path d="M278.054 190.091C278.054 186.974 274.284 186.974 274.017 186.974C270.693 186.974 268.141 189.408 266.924 190.922C266.598 191.337 266.153 191.515 265.737 191.515C264.936 191.515 264.164 190.892 264.164 190.091C264.164 189.705 264.342 189.289 264.758 188.874C269.031 184.66 273.364 179.377 273.364 179.05C273.364 178.991 273.335 178.961 273.275 178.961C273.216 178.961 273.157 178.991 273.068 179.021C270.842 180.416 268.022 181.187 267.132 181.187C266.123 181.187 265.589 180.445 265.589 179.733C265.589 179.11 265.975 178.516 266.835 178.427C269.773 178.16 273.513 176.824 274.344 176.409C274.7 176.231 275.086 176.172 275.412 176.172C276.51 176.172 277.371 176.973 277.371 177.923C277.371 178.397 277.163 178.902 276.688 179.377C274.67 181.306 272.385 183.829 270.515 185.906C271.792 185.075 273.305 184.719 274.759 184.719C277.905 184.719 281.021 186.648 281.021 189.942C281.021 193.919 276.926 197.718 271.792 197.718C268.23 197.718 266.36 195.67 266.36 193.919C266.36 192.317 267.844 191.129 269.684 191.129C272.266 191.129 274.047 192.554 274.314 194.839C275.59 194.513 278.054 192.406 278.054 190.091ZM269.951 193.266C268.942 193.266 268.913 193.919 268.913 194.038C268.913 195.195 270.931 195.344 271.673 195.344H271.881C271.792 194.068 271.139 193.266 269.951 193.266Z" fill="white"/>
<path d="M293.991 198.163C291.409 199.706 289.302 196.739 292.002 195.373C296.395 193.177 298.413 189.794 299.066 186.114C299.214 185.223 299.214 184.155 299.066 183.413C298.71 181.573 302.063 180.92 302.479 183.116C302.538 183.413 302.538 183.858 302.538 184.333C304.319 183.472 306.515 181.899 307.613 180.386C308.118 179.703 308.207 179.347 307.079 179.406C303.34 179.555 298.561 180.208 297.226 180.386C295.623 180.594 294.822 180.831 293.16 180.772C291.231 180.712 290.875 177.626 293.368 177.685C294.644 177.715 296.039 177.537 297.285 177.448C298.591 177.359 303.547 176.884 308.326 176.617C311.65 176.439 312.926 178.932 310.818 181.395C308.919 183.621 306.396 185.965 303.369 187.093C302.924 187.271 302.479 187.271 302.123 187.123C300.995 191.723 298.71 195.314 293.991 198.163Z" fill="white"/>
<path d="M323.699 194.78C329.931 192.524 334.68 186.114 336.342 181.84C336.55 181.336 336.193 181.128 335.808 181.157C333.522 181.276 329.575 181.929 327.527 182.167C325.717 182.374 325.539 182.552 323.788 182.493C321.592 182.404 321.354 179.169 323.996 179.317C325.301 179.377 326.4 179.258 327.646 179.169C330.139 178.991 334.175 178.338 337.499 178.13C339.992 177.982 341.15 179.614 340.259 181.425C337.143 187.776 333.344 194.305 325.034 197.718C322.156 198.905 321.117 195.73 323.699 194.78ZM342.545 178.843C340.823 178.843 339.458 177.477 339.458 175.756C339.458 174.035 340.823 172.64 342.545 172.64C344.266 172.64 345.661 174.035 345.661 175.756C345.661 177.477 344.266 178.843 342.545 178.843ZM342.545 174.242C341.714 174.242 341.061 174.925 341.061 175.756C341.061 176.587 341.714 177.24 342.545 177.24C343.376 177.24 344.058 176.587 344.058 175.756C344.058 174.925 343.376 174.242 342.545 174.242Z" fill="white"/>
<path d="M355.188 196.442C360.678 193.83 363.29 188.251 363.26 183.769C363.23 181.395 363.409 180.475 363.349 179.021C363.319 178.279 363.26 177.151 363.112 176.557C362.548 174.242 366.287 173.886 366.436 176.409C366.525 177.655 366.495 178.101 366.495 179.021C366.495 180.089 366.465 180.623 366.436 181.187C366.406 181.751 366.376 182.404 366.406 183.65C366.495 189.26 363.141 195.908 356.879 199.083C354.386 200.359 353.229 197.362 355.188 196.442ZM356.137 187.36C356.612 185.312 356.553 181.988 356.286 180.119C356.197 179.555 356.078 178.961 355.93 178.397C355.306 175.756 358.927 175.192 359.194 177.774C359.283 178.605 359.313 179.496 359.313 180.237C359.283 181.395 359.343 182.879 359.372 184.036C359.402 185.194 359.402 186.292 359.224 187.479C358.808 190.18 355.662 189.408 356.137 187.36Z" fill="white"/>
</g>
<g clip-path="url(#clip1_165_1208)">
<path d="M187.567 546.853L191.689 546.42C193.44 545.039 192.245 546.441 193.976 545.059C208.42 533.615 209.595 525.119 222.04 511.51L175.369 517.675" fill="#FFE5AA"/>
<path d="M162.532 507.922C161.337 509.571 158.205 509.551 156.35 509.922C140.731 512.994 125.071 516.129 109.328 518.418C109.328 504.066 120.126 486.827 135.724 486.93C137.682 486.93 156.309 504.581 162.511 507.901H162.532V507.922Z" fill="#CA7369"/>
<path d="M257.441 487.033C258.492 486.93 268.897 490.25 270.093 490.992C278.829 496.457 283.218 508.19 282.703 518.232C267.105 515.737 251.568 512.52 236.093 509.262C234.28 508.87 231.704 508.726 230.303 507.53C233.188 505.942 236.217 504.519 238.896 502.581C242.502 499.983 254.906 487.281 257.42 487.054L257.441 487.033Z" fill="#CA7369"/>
<path d="M258.471 482.703C255.092 473.651 260.635 440.988 256.472 434.575C255.318 432.781 240.4 428.966 236.052 425.708C230.283 421.378 228.016 416.037 224.163 410.325C217.033 414.532 212.562 420.409 205.226 424.821C185.157 436.864 157.978 438.926 135.23 439.483C134.714 453.257 135.559 467.052 135.765 480.806L134.714 480.909C127.399 471.465 124.576 473.073 120.187 459.01C109.658 425.337 126.967 389.478 157.051 372.363C226.059 333.102 311.592 411.872 259.234 482.827L258.451 482.703H258.471Z" fill="#CA7369"/>
<path d="M258.471 482.703C258.409 483.239 258.121 483.713 258.018 484.208C257.956 484.476 257.812 484.724 257.75 484.992C257.812 484.724 257.935 484.476 258.018 484.208C257.956 484.476 257.812 484.724 257.75 484.992L257.441 487.033C254.906 487.281 242.502 499.983 238.916 502.56C236.217 504.499 233.209 505.922 230.324 507.509C229.17 508.149 228.016 508.829 226.842 509.386C226.78 509.427 226.718 509.468 226.656 509.489C226.574 509.53 226.491 509.571 226.388 509.613C205.329 519.407 183.055 518.892 162.532 507.901C156.329 504.581 137.681 486.93 135.745 486.93L135.868 484.683C135.868 484.25 135.827 483.817 135.848 483.383L135.683 483.219C135.497 482.394 135.25 481.548 134.735 480.868L135.786 480.765C135.58 466.99 134.714 453.195 135.25 439.441C157.999 438.885 185.177 436.823 205.247 424.78C212.583 420.388 217.054 414.511 224.183 410.284C228.037 415.996 230.324 421.337 236.073 425.667C240.421 428.925 255.339 432.74 256.493 434.534C260.655 440.967 255.112 473.609 258.492 482.662V482.703H258.471Z" fill="#FFE5AA"/>
<path d="M181.386 482.93L211.862 482.786H212.521C209.018 503.983 183.508 504.87 181.386 482.93Z" fill="#CA7369" stroke="#4A121A" stroke-width="7.11879" stroke-linecap="round" stroke-linejoin="round"/>
<path d="M180.809 483.425L182.107 482.765" stroke="#4A121A" stroke-width="7.11879" stroke-linecap="round" stroke-linejoin="round"/>
<path d="M158.328 460.928C163.129 453.834 168.528 453.814 175.493 458" stroke="#4A121A" stroke-width="7.11879" stroke-linecap="round" stroke-linejoin="round"/>
<path d="M235.413 459.835C230.612 452.742 225.214 452.721 218.249 456.907" stroke="#4A121A" stroke-width="7.11879" stroke-linecap="round" stroke-linejoin="round"/>
<path d="M68.6742 618.175V618.845C69.092 622.674 68.2147 627.843 69.1756 631.464C69.2383 631.673 69.2174 631.882 69.28 632.071C83.5894 680.747 173.038 675.724 212.144 674.971C246.298 674.301 307.609 673.234 320.602 631.924C320.665 631.736 320.665 631.548 320.727 631.359C321.5 628.66 321.166 621.837 321.291 618.531V617.819" fill="#FF7A64"/>
<path d="M68.6742 618.175V618.845C69.092 622.674 68.2147 627.843 69.1756 631.464C69.2383 631.673 69.2174 631.882 69.28 632.071C83.5894 680.747 173.038 675.724 212.144 674.971C246.298 674.301 307.609 673.234 320.602 631.924C320.665 631.736 320.665 631.548 320.727 631.359C321.5 628.66 321.166 621.837 321.291 618.531V617.819" stroke="#4A121A" stroke-width="7.82611" stroke-linecap="round" stroke-linejoin="round"/>
<path d="M177.636 595.662C177.388 597.229 161.687 615.89 159.256 618.324C157.689 619.911 156.206 621.87 154.557 623.314L154.084 623.809" fill="#96BB00"/>
<path d="M177.636 595.662C177.388 597.229 161.687 615.89 159.256 618.324C157.689 619.911 156.206 621.87 154.557 623.314L154.084 623.809" stroke="#4A121A" stroke-width="7.82611" stroke-linecap="round" stroke-linejoin="round"/>
<path d="M323.44 633.459C328.118 633.81 336.236 639.769 339.966 635.088C341.305 633.418 341.635 616.756 340.873 614.529C337.452 604.652 326.098 617.726 321.833 618.612L321.256 619.045" fill="#FF7A64"/>
<path d="M323.44 633.459C328.118 633.81 336.236 639.769 339.966 635.088C341.305 633.418 341.635 616.756 340.873 614.529C337.452 604.652 326.098 617.726 321.833 618.612L321.256 619.045" stroke="#4A121A" stroke-width="7.82611" stroke-linecap="round" stroke-linejoin="round"/>
<path d="M69.6627 633.459C65.6859 633.789 57.0316 638.779 53.7759 636.119C50.9529 633.83 51.3238 614.158 53.2607 612.076C56.4958 608.591 68.344 616.2 71.4554 618.86L72.053 619.334C76.7922 614.035 86.312 604.879 101.21 599.27C110.915 595.621 119.611 594.693 125.669 594.569C174.05 592.651 222.432 590.754 270.814 588.836C278.108 591.208 285.876 594.115 292.553 597.93C305.019 605.044 314.642 612.571 321.236 619.025" fill="#FF7A64"/>
<path d="M69.6627 633.459C65.6859 633.789 57.0316 638.779 53.7759 636.119C50.9529 633.83 51.3238 614.158 53.2607 612.076C56.4958 608.591 68.344 616.2 71.4554 618.86L72.053 619.334C76.7922 614.035 86.312 604.879 101.21 599.27C110.915 595.621 119.611 594.693 125.669 594.569C174.05 592.651 222.432 590.754 270.814 588.836C278.108 591.208 285.876 594.115 292.553 597.93C305.019 605.044 314.642 612.571 321.236 619.025" stroke="#4A121A" stroke-width="7.82611" stroke-linecap="round" stroke-linejoin="round"/>
<path d="M129.336 613.169C126.596 615.334 125.133 617.602 124.309 619.272C120.744 626.592 122.887 636.263 129.316 644.326C144.358 649.667 167.601 655.894 196.469 656.018C227.996 656.142 253.093 648.904 268.63 643.068C269.413 642.285 278.562 632.593 275.718 620.118C274.173 613.334 269.866 609.127 267.97 607.498" fill="#FFCF5F"/>
<path d="M129.336 613.169C126.596 615.334 125.133 617.602 124.309 619.272C120.744 626.592 122.887 636.263 129.316 644.326C144.358 649.667 167.601 655.894 196.469 656.018C227.996 656.142 253.093 648.904 268.63 643.068C269.413 642.285 278.562 632.593 275.718 620.118C274.173 613.334 269.866 609.127 267.97 607.498" stroke="#4A121A" stroke-width="7.82611" stroke-linecap="round" stroke-linejoin="round"/>
<path d="M153.713 623.644C166.076 624.551 174.772 621.932 179.222 620.221C184.085 618.344 188.886 616.509 190.391 612.715C192.389 607.684 187.897 600.92 179.078 595.827C170.753 594.919 161.749 594.548 152.188 595.064C151.096 595.126 150.024 595.188 148.953 595.27" fill="#FFDBAE"/>
<path d="M153.713 623.644C166.076 624.551 174.772 621.932 179.222 620.221C184.085 618.344 188.886 616.509 190.391 612.715C192.389 607.684 187.897 600.92 179.078 595.827C170.753 594.919 161.749 594.548 152.188 595.064C151.096 595.126 150.024 595.188 148.953 595.27" stroke="#4A121A" stroke-width="7.82611" stroke-linecap="round" stroke-linejoin="round"/>
<path d="M235.743 619.499C224.822 620.262 217.137 618.035 213.201 616.571C208.915 614.963 204.67 613.375 203.331 610.137C201.559 605.828 205.515 600.033 213.324 595.662C220.681 594.878 228.634 594.569 237.083 595.002C238.051 595.043 238.999 595.105 239.926 595.167" fill="#FFDBAE"/>
<path d="M235.743 619.499C224.822 620.262 217.137 618.035 213.201 616.571C208.915 614.963 204.67 613.375 203.331 610.137C201.559 605.828 205.515 600.033 213.324 595.662C220.681 594.878 228.634 594.569 237.083 595.002C238.051 595.043 238.999 595.105 239.926 595.167" stroke="#4A121A" stroke-width="7.82611" stroke-linecap="round" stroke-linejoin="round"/>
<path d="M218.229 586.176L215.406 595.744" stroke="#4A121A" stroke-width="7.82611" stroke-linecap="round" stroke-linejoin="round"/>
<path d="M213.189 545.751L228.362 528.303L234.051 555.613L213.189 545.751Z" fill="#C2A800"/>
<path d="M172.983 548.027L163.88 529.821L157.432 557.889L172.983 548.027Z" fill="#C2A800"/>
<path d="M218.228 586.176L217.672 585.64C216.518 584.568 215.694 583.413 214.066 582.98C212.438 582.547 180.706 582.465 179.037 582.98C177.368 583.496 176.605 584.568 175.431 585.702L174.874 586.238" stroke="#4A121A" stroke-width="7.82611" stroke-linecap="round" stroke-linejoin="round"/>
<path d="M177.636 595.662L177.43 594.981C177.45 594.466 175.431 587.64 175.06 586.919L174.854 586.238" stroke="#4A121A" stroke-width="7.82611" stroke-linecap="round" stroke-linejoin="round"/>
<path d="M238.649 553.472C238.339 557.06 239.225 561.329 237.969 564.772C235.64 571.144 224.802 582.197 218.805 585.805L218.228 586.156" stroke="#4A121A" stroke-width="7.82611" stroke-linecap="round" stroke-linejoin="round"/>
<path d="M152.394 567.288L150.993 556.504C151.446 552.977 152.538 549.513 154.825 549.286C158.74 549.41 158.637 552.565 157.999 555.576L159.4 566.36C159.915 570.979 153.074 571.886 152.394 567.267V567.288Z" fill="#4A121A"/>
<path d="M155.897 566.834L156.35 567.309C160.389 573.165 171.681 580.691 174.854 586.259" stroke="#4A121A" stroke-width="7.82611" stroke-linecap="round" stroke-linejoin="round"/>
<path d="M226.656 509.51L181.695 560.545" stroke="#4A121A" stroke-width="7.82611" stroke-linecap="round" stroke-linejoin="round"/>
<path d="M156.371 509.922C140.752 512.994 125.092 516.129 109.349 518.418C109.349 504.066 120.146 486.827 135.745 486.93C137.702 486.93 156.33 504.581 162.532 507.901C183.055 518.892 205.33 519.387 226.388 509.613L226.842 509.386C228.016 508.808 229.17 508.149 230.324 507.509C233.209 505.922 236.238 504.499 238.916 502.56C242.522 499.962 254.927 487.26 257.441 487.033C258.492 486.93 268.898 490.25 270.093 490.992C278.829 496.457 283.218 508.19 282.703 518.232C267.105 515.737 251.568 512.52 236.094 509.262" stroke="#4A121A" stroke-width="7.82611" stroke-linecap="round" stroke-linejoin="round"/>
<path d="M187.567 543.719L175.369 517.655" stroke="#4A121A" stroke-width="7.82611" stroke-linecap="round" stroke-linejoin="round"/>
<path d="M226.842 514.149C253.114 527.944 268.259 559.061 268.012 588.073C267.929 596.775 262.366 624.035 256.493 629.954C249.364 637.15 242.461 624.386 237.495 621.107L237.021 620.633" fill="#C2A800"/>
<path d="M226.842 514.149C253.114 527.944 268.259 559.061 268.012 588.073C267.929 596.775 262.366 624.035 256.493 629.954C249.364 637.15 242.461 624.386 237.495 621.107M237.495 621.107L237.021 620.633M237.495 621.107L233.672 595.061" stroke="#4A121A" stroke-width="7.82611" stroke-linecap="round" stroke-linejoin="round"/>
<path d="M167.294 513.89C139.908 528.98 125.3 557.793 125.574 588.201C125.616 592.755 126.142 598.675 126.984 603.146C127.826 607.617 129.236 612.585 130.794 616.704C137.382 634.154 139.319 637.3 154.938 624.094" fill="#C2A800"/>
<path d="M167.294 513.89C139.908 528.98 125.3 557.793 125.574 588.201C125.616 592.755 126.142 598.675 126.984 603.146C127.826 607.617 129.236 612.585 130.794 616.704C137.382 634.154 139.319 637.3 154.938 624.094M155.914 624.268L161.604 560.165" stroke="#4A121A" stroke-width="7.82611" stroke-linecap="round" stroke-linejoin="round"/>
<path d="M176.008 546.131L163.809 520.067" stroke="#4A121A" stroke-width="7.82611" stroke-linecap="round" stroke-linejoin="round"/>
<path d="M230.88 521.428L185.919 572.464" stroke="#4A121A" stroke-width="7.82611" stroke-linecap="round" stroke-linejoin="round"/>
<path d="M135.868 484.703L135.683 483.239C135.497 482.414 135.25 481.569 134.735 480.888C127.42 471.444 124.597 473.053 120.208 458.99C109.679 425.316 126.987 389.457 157.071 372.343C226.079 333.081 311.613 411.851 259.254 482.806C258.966 483.198 258.718 483.61 258.43 484.002C258.203 484.332 258.038 484.724 257.75 484.992C257.812 484.724 257.935 484.476 258.018 484.208C258.141 483.693 258.43 483.219 258.471 482.703C255.092 473.651 260.635 440.988 256.472 434.575C255.318 432.781 240.4 428.966 236.052 425.708C230.283 421.378 228.016 416.037 224.163 410.325C217.033 414.532 212.562 420.409 205.226 424.822C185.157 436.864 157.978 438.926 135.229 439.483C134.714 453.257 135.559 467.052 135.765 480.806C135.765 481.672 135.827 482.538 135.827 483.404C135.827 483.837 135.848 484.27 135.848 484.703H135.868Z" stroke="#4A121A" stroke-width="7.82611" stroke-linecap="round" stroke-linejoin="round"/>
<path d="M195.047 594.383L195.913 594.445L196.119 595.414C196.242 595.456 196.407 595.414 196.51 595.414C196.634 595.476 196.964 595.002 196.964 595.703C196.078 600.054 206.463 613.808 205.391 616.303C204.443 618.509 194.141 618.324 191.833 617.973C189.855 617.684 187.959 618.179 187.568 615.56C187.403 614.509 193.811 598.528 194.697 595.559L194.532 595.208L194.821 595.167C194.903 594.899 194.965 594.631 195.047 594.363V594.383Z" fill="#4A121A"/>
<path d="M275.821 346.279C280.231 345.681 281.858 352.733 277.943 353.207C274.667 353.599 271.617 346.856 275.821 346.279Z" fill="#4A121A"/>
<path d="M276.542 359.764C282.765 358.671 280.025 367.414 275.471 366.321C272.874 365.703 273.41 360.3 276.542 359.764Z" fill="#4A121A"/>
<path d="M286.474 359.764C289.977 358.547 293.748 364.053 290.389 365.971C287.669 367.517 284.393 364.032 285.238 361.043C285.238 360.96 286.392 359.785 286.474 359.764Z" fill="#4A121A"/>
<path d="M288.246 346.278C292.594 345.701 292.347 351.145 289.318 352.485C283.878 354.856 284.001 346.835 288.246 346.278Z" fill="#4A121A"/>
<path d="M74.0929 524.976C78.5025 524.378 80.1303 531.43 76.2153 531.904C72.939 532.296 69.8894 525.553 74.0929 524.976Z" fill="#4A121A"/>
<path d="M74.8141 538.461C81.0369 537.368 78.2964 546.111 73.7426 545.018C71.1463 544.399 71.682 538.997 74.8141 538.461Z" fill="#4A121A"/>
<path d="M84.7459 538.461C88.2489 537.244 92.0197 542.75 88.661 544.668C85.9411 546.214 82.6648 542.729 83.5096 539.739C83.5302 539.657 84.6635 538.481 84.7459 538.461Z" fill="#4A121A"/>
<path d="M86.5386 524.975C90.8864 524.398 90.6391 529.841 87.6101 531.182C82.1702 533.553 82.2939 525.532 86.5386 524.975Z" fill="#4A121A"/>
<path d="M96.6354 361.888C98.4075 361.702 107.968 370.796 108.174 371.909C108.236 372.239 108.257 373.456 108.174 373.724C107.989 374.425 98.7372 383.56 98.0572 383.746C95.976 384.323 86.5181 375.374 86.1678 373.724C85.9824 372.858 86.1678 371.641 86.5181 370.796C86.8478 370.012 95.7494 361.95 96.6354 361.867V361.888Z" fill="#4A121A"/>
<path d="M96.6354 369.188C97.8306 368.961 99.7881 371.992 100.715 372.652C97.5421 377.291 96.7797 377.312 93.2561 373.023C93.2149 372.611 96.3882 369.249 96.6354 369.188Z" fill="#F9B452"/>
<path d="M321.38 522.212C322.719 521.882 323.791 522.315 324.924 522.933C325.46 523.222 333.496 531.243 333.619 531.862C333.681 532.171 333.702 533.78 333.619 534.048C333.434 534.728 324.182 543.554 323.502 543.719C323.193 543.781 321.648 543.801 321.38 543.719C320.638 543.492 311.736 534.357 311.613 533.326C311.365 531.182 319.834 522.583 321.38 522.212Z" fill="#4A121A"/>
<path d="M322.451 529.14C323.296 529.14 325.686 532.357 326.531 532.976C326.037 533.532 322.719 536.811 322.451 536.811C322.163 536.811 318.474 533.058 319.072 532.254C319.731 531.718 321.792 529.161 322.451 529.161V529.14Z" fill="#F9B452"/>
<path d="M247.736 593.538C245.943 576.588 236.011 561.473 221.443 553.287C221.361 553.246 221.299 553.204 221.216 553.163C213.716 548.998 205.309 546.833 196.799 546.853C188.289 546.874 179.717 549.142 172.175 553.411C166.117 556.854 160.78 561.535 156.536 567.164C156.474 567.226 156.433 567.309 156.371 567.371C150.766 574.876 147.201 583.867 146.15 593.27" fill="#F2F2F2"/>
<path d="M247.736 593.538C245.943 576.588 236.011 561.473 221.443 553.287C221.361 553.246 221.299 553.204 221.216 553.163C213.716 548.998 205.309 546.833 196.799 546.853C188.289 546.874 179.717 549.142 172.175 553.411C166.117 556.854 160.78 561.535 156.536 567.164C156.474 567.226 156.433 567.309 156.371 567.371C150.766 574.876 147.201 583.867 146.15 593.27" stroke="#B91832" stroke-width="11.2486" stroke-linecap="round" stroke-linejoin="round"/>
<path d="M193.976 591.661C194.512 591.744 195.027 591.888 195.563 591.95C195.892 591.991 196.407 591.95 196.634 592.074C196.716 592.115 196.84 592.074 196.902 592.074C203.001 592.795 208.977 593.723 215.117 593.93C218.847 594.074 245.16 594.239 246.788 593.6" fill="#F2F2F2"/>
<path d="M193.976 591.661C194.512 591.744 195.027 591.888 195.563 591.95C195.892 591.991 196.407 591.95 196.634 592.074C196.716 592.115 196.84 592.074 196.902 592.074C203.001 592.795 208.977 593.723 215.117 593.93C218.847 594.074 245.16 594.239 246.788 593.6" stroke="#B91832" stroke-width="11.2486" stroke-linecap="round" stroke-linejoin="round"/>
<path d="M172.608 553.926C177.924 563.164 183.158 572.443 188.68 581.557C189.381 582.692 194.944 590.919 194.45 591.393C189.36 594.775 184.291 593.95 178.625 593.992C174.339 594.033 149.303 594.198 147.16 593.394" fill="#F2F2F2"/>
<path d="M172.608 553.926C177.924 563.164 183.158 572.443 188.68 581.557C189.381 582.692 194.944 590.919 194.45 591.393C189.36 594.775 184.291 593.95 178.625 593.992C174.339 594.033 149.303 594.198 147.16 593.394" stroke="#B91832" stroke-width="11.2486" stroke-linecap="round" stroke-linejoin="round"/>
<path d="M196.861 547.513C196.902 558.38 196.799 569.268 196.861 580.135C196.861 584.197 196.655 588.238 197.211 592.28C196.613 595.229 203.64 604.508 202.898 606.219C202.259 607.704 195.295 607.58 193.729 607.354C192.389 607.168 191.112 607.498 190.844 605.725C190.741 605.003 195.068 594.198 195.666 592.198C195.686 592.115 195.727 592.012 195.748 591.929C195.81 591.744 195.851 591.558 195.892 591.393C196.284 590.032 196.675 588.63 196.84 587.228" fill="#F2F2F2"/>
<path d="M196.861 547.513C196.902 558.38 196.799 569.268 196.861 580.135C196.861 584.197 196.655 588.238 197.211 592.28C196.613 595.229 203.64 604.508 202.898 606.219C202.259 607.704 195.295 607.58 193.729 607.354C192.389 607.168 191.112 607.498 190.844 605.725C190.741 605.003 195.068 594.198 195.666 592.198C195.686 592.115 195.727 592.012 195.748 591.929C195.81 591.744 195.851 591.558 195.892 591.393C196.284 590.032 196.675 588.63 196.84 587.228" stroke="#B91832" stroke-width="11.2486" stroke-linecap="round" stroke-linejoin="round"/>
<path d="M207.246 578.217C207.988 579.825 208.688 581.475 209.43 583.083C209.863 584.011 210.213 584.96 210.687 585.867L210.811 586.094C211.944 588.259 213.324 590.321 214.54 592.466" fill="#F2F2F2"/>
<path d="M207.246 578.217C207.988 579.825 208.688 581.475 209.43 583.083C209.863 584.011 210.213 584.96 210.687 585.867L210.811 586.094C211.944 588.259 213.324 590.321 214.54 592.466" stroke="#B91832" stroke-width="11.2486" stroke-linecap="round" stroke-linejoin="round"/>
<path d="M236.959 567.989L202.733 591.579C201.312 592.486 199.581 592.218 197.973 592.177" fill="#F2F2F2"/>
<path d="M236.959 567.989L202.733 591.579C201.312 592.486 199.581 592.218 197.973 592.177" stroke="#B91832" stroke-width="11.2486" stroke-linecap="round" stroke-linejoin="round"/>
<path d="M156.762 567.742C165.396 573.722 173.968 579.784 182.622 585.723C185.383 587.62 188.145 589.476 190.906 591.373" fill="#F2F2F2"/>
<path d="M156.762 567.742C165.396 573.722 173.968 579.784 182.622 585.723C185.383 587.62 188.145 589.476 190.906 591.373" stroke="#B91832" stroke-width="11.2486" stroke-linecap="round" stroke-linejoin="round"/>
<path d="M204.052 580.939C201.703 580.588 199.292 580.444 196.923 580.114H196.675C193.461 579.248 191.38 580.609 188.68 581.908C186.867 582.795 184.23 584.114 182.89 585.681C182.787 585.805 182.664 585.929 182.56 586.053C181.036 588.012 180.397 590.342 179.305 592.527" fill="#F2F2F2"/>
<path d="M204.052 580.939C201.703 580.588 199.292 580.444 196.923 580.114H196.675C193.461 579.248 191.38 580.609 188.68 581.908C186.867 582.795 184.23 584.114 182.89 585.681C182.787 585.805 182.664 585.929 182.56 586.053C181.036 588.012 180.397 590.342 179.305 592.527" stroke="#B91832" stroke-width="11.2486" stroke-linecap="round" stroke-linejoin="round"/>
<path d="M221.113 553.926C216.477 561.927 212.026 570.031 207.37 578.011C207.287 578.155 207.205 578.299 207.122 578.444C206.607 579.31 206.092 580.155 205.577 581.021C205.536 581.083 205.494 581.166 205.453 581.228C203.681 584.238 201.847 587.228 200.075 590.239" fill="#F2F2F2"/>
<path d="M221.113 553.926C216.477 561.927 212.026 570.031 207.37 578.011C207.287 578.155 207.205 578.299 207.122 578.444C206.607 579.31 206.092 580.155 205.577 581.021C205.536 581.083 205.494 581.166 205.453 581.228C203.681 584.238 201.847 587.228 200.075 590.239" stroke="#B91832" stroke-width="11.2486" stroke-linecap="round" stroke-linejoin="round"/>
</g>
<defs>
<clipPath id="clip0_165_1208">
<rect width="340" height="85.5973" fill="white" transform="translate(26.5 172.64)"/>
</clipPath>
<clipPath id="clip1_165_1208">
<rect width="296.616" height="333.123" fill="white" transform="translate(48.1918 346.237)"/>
</clipPath>
</defs>
</svg>
